<?xml version="1.0" standalone="no"?>
<!DOCTYPE svg PUBLIC "-//W3C//DTD SVG 20010904//EN"
 "http://www.w3.org/TR/2001/REC-SVG-20010904/DTD/svg10.dtd">
<svg version="1.0" xmlns="http://www.w3.org/2000/svg"
 width="1890.000000pt" height="1890.000000pt" viewBox="0 0 1890.000000 1890.000000"
 preserveAspectRatio="xMidYMid meet">
<metadata>
Created by potrace 1.11, written by Peter Selinger 2001-2013
</metadata>
<g transform="translate(0.000000,1890.000000) scale(0.100000,-0.100000)"
fill="#000000" stroke="none">
<path d="M9447 14444 c-3 -3 -3 -13 0 -22 5 -11 3 -13 -8 -7 -11 6 -12 5 -2
-5 9 -10 10 -17 2 -27 -9 -9 -8 -13 0 -13 9 0 9 -5 0 -21 -9 -17 -8 -20 2 -14
8 6 10 4 4 -5 -5 -8 -10 -31 -11 -51 -1 -21 -5 -48 -9 -60 -5 -15 -4 -19 5
-14 9 5 9 1 -1 -16 -15 -29 -19 -58 -7 -65 4 -3 4 -13 0 -22 -5 -9 -8 -36 -8
-59 1 -24 -3 -43 -7 -43 -5 0 -6 -4 -3 -9 4 -5 0 -12 -6 -14 -10 -4 -9 -6 1
-6 10 -1 11 -4 2 -15 -8 -10 -9 -16 -1 -21 6 -3 7 -12 3 -18 -4 -7 -9 -30 -10
-52 -2 -22 -4 -58 -6 -80 -1 -22 1 -46 7 -53 6 -9 5 -11 -6 -7 -12 5 -15 -3
-13 -45 1 -27 -2 -50 -5 -50 -4 0 -4 -18 0 -40 4 -22 3 -37 -1 -34 -5 3 -9 2
-10 -3 0 -4 -2 -20 -4 -36 -3 -19 0 -25 8 -20 7 4 6 0 -2 -10 -7 -9 -10 -17
-6 -17 4 0 1 -8 -6 -17 -8 -9 -9 -14 -3 -10 7 4 11 -4 10 -23 -1 -17 -5 -30
-10 -30 -5 0 -2 -8 5 -17 12 -14 12 -15 0 -9 -10 7 -12 3 -6 -14 4 -13 3 -20
-2 -17 -5 4 -10 0 -10 -8 0 -8 4 -15 9 -15 5 0 7 -4 3 -10 -7 -12 -18 -105
-17 -147 0 -19 -4 -33 -11 -33 -7 0 -6 -4 3 -10 13 -9 13 -10 0 -10 -13 0 -13
-1 0 -10 8 -5 10 -10 3 -10 -6 0 -10 -11 -8 -25 1 -14 -2 -25 -6 -25 -5 0 -4
-11 1 -25 7 -18 6 -25 -3 -25 -8 0 -7 -4 3 -10 8 -5 10 -10 3 -10 -6 0 -10 -8
-8 -17 1 -10 -3 -24 -9 -32 -8 -11 -8 -13 2 -7 15 9 16 -6 0 -22 -7 -7 -8 -12
-4 -12 5 0 2 -8 -5 -17 -10 -11 -10 -14 -1 -9 7 4 12 1 12 -9 0 -10 -5 -14
-12 -9 -10 5 -10 4 -1 -6 6 -7 8 -23 4 -39 -3 -14 -6 -38 -5 -53 0 -16 -4 -28
-10 -28 -6 0 -4 -5 4 -10 8 -5 10 -10 3 -10 -13 0 -12 -18 1 -39 7 -11 5 -13
-8 -8 -14 6 -15 3 -6 -13 8 -15 8 -20 -2 -20 -9 0 -9 -3 2 -10 8 -5 11 -10 5
-10 -5 0 -10 -24 -10 -53 1 -28 -2 -59 -7 -68 -4 -9 -2 -21 3 -26 8 -8 7 -13
-2 -18 -8 -6 -10 -4 -4 5 5 9 4 11 -3 6 -9 -5 -9 -13 -2 -27 8 -14 7 -19 -1
-19 -8 0 -8 -4 1 -15 9 -11 10 -15 1 -15 -7 0 -10 -8 -7 -17 3 -10 1 -25 -4
-33 -5 -9 -5 -19 1 -26 7 -8 6 -14 -1 -19 -8 -5 -7 -11 2 -23 9 -10 9 -13 1
-9 -7 5 -12 1 -12 -10 0 -10 -2 -42 -4 -70 -2 -29 -1 -56 2 -61 3 -5 26 -8 51
-8 25 1 53 -3 64 -7 11 -6 16 -5 13 1 -4 5 7 9 23 8 17 -1 30 -5 30 -11 0 -5
4 -5 8 2 9 14 44 12 54 -2 5 -6 8 -6 8 1 0 7 32 10 95 7 70 -2 95 0 95 10 0 8
3 8 9 -2 6 -9 10 -1 12 27 3 25 0 38 -6 36 -6 -3 -11 4 -11 15 0 11 4 17 8 15
4 -3 8 -1 8 5 0 5 -5 13 -11 17 -8 4 -7 9 2 15 9 5 10 9 3 9 -7 0 -11 14 -10
35 1 19 -3 35 -9 35 -5 0 -3 5 5 10 13 9 13 10 0 10 -13 0 -13 1 0 10 12 8 12
10 1 10 -11 0 -11 3 -1 16 8 8 9 14 4 13 -21 -4 -26 2 -13 18 12 15 12 16 -1
8 -13 -8 -13 -7 -1 8 7 9 9 17 3 17 -5 0 -10 12 -9 28 1 89 -3 123 -15 116
-10 -6 -10 -5 -1 7 10 12 10 18 0 29 -10 10 -9 11 1 5 11 -6 12 -3 3 12 -7 14
-7 23 1 31 8 8 8 12 2 12 -9 0 -13 29 -17 128 0 6 -5 12 -10 12 -5 0 -4 7 3
15 7 8 8 15 3 15 -5 0 -9 10 -8 23 1 12 -2 30 -7 41 -7 13 -7 16 1 12 6 -4 11
-2 11 3 0 6 -5 11 -11 11 -8 0 -8 4 0 14 8 10 9 16 1 21 -7 4 -7 12 0 25 7 13
7 21 -2 26 -7 5 -8 3 -3 -6 5 -9 4 -11 -3 -6 -9 5 -9 13 -2 26 7 13 7 21 -1
26 -8 4 -7 9 2 15 9 6 10 9 2 9 -7 0 -12 17 -13 43 0 23 -1 57 -2 75 0 17 -4
32 -8 32 -5 0 -6 14 -3 31 3 24 1 29 -9 24 -7 -3 -4 1 6 9 12 10 15 16 7 16
-8 0 -11 8 -8 20 3 11 2 20 -2 20 -3 0 -6 18 -4 40 1 29 -1 39 -10 33 -8 -4
-8 -1 1 9 9 11 10 18 2 23 -7 4 -7 13 1 27 8 15 8 19 -1 13 -8 -5 -11 -1 -9
11 2 11 0 25 -4 32 -5 6 -4 12 2 12 6 0 8 9 3 23 -4 12 -7 39 -7 59 0 21 -4
38 -10 38 -5 0 -3 5 5 10 8 5 10 10 4 10 -7 0 -11 15 -10 40 1 22 0 40 -4 40
-3 0 -5 18 -4 40 0 23 -4 40 -10 40 -7 0 -7 3 -1 8 12 9 16 44 4 36 -13 -8
-11 10 4 25 10 11 9 12 -2 6 -10 -6 -13 -4 -8 7 3 9 0 21 -6 28 -10 10 -8 11
7 6 18 -6 19 -5 5 11 -8 10 -15 30 -14 46 0 15 -3 27 -7 27 -4 0 -8 5 -8 11 0
5 4 8 8 5 12 -7 8 25 -6 51 -9 16 -9 24 0 29 7 5 8 3 3 -6 -5 -9 -4 -11 4 -6
9 6 9 11 1 21 -7 8 -8 20 -4 26 4 8 3 9 -4 5 -8 -5 -10 5 -7 29 4 27 2 34 -7
29 -9 -5 -9 -2 1 9 10 13 10 17 1 17 -10 0 -10 3 0 15 10 12 10 15 0 15 -10 0
-10 3 -1 14 7 8 8 17 3 20 -8 5 -14 51 -13 99 0 9 -6 17 -12 17 -7 0 -6 4 3
10 8 5 10 10 4 10 -6 0 -13 -3 -17 -6z"/>
<path d="M11970 13820 c0 -5 5 -10 11 -10 5 0 7 5 4 10 -3 6 -8 10 -11 10 -2
0 -4 -4 -4 -10z"/>
<path d="M6936 13802 c-3 -5 1 -15 9 -22 8 -7 12 -16 9 -21 -3 -5 0 -9 5 -9 6
0 11 -9 11 -20 0 -11 5 -20 10 -20 6 0 10 -7 10 -15 0 -8 4 -15 10 -15 5 0 7
-6 4 -14 -3 -7 1 -16 9 -19 9 -3 13 -16 12 -32 -2 -18 1 -25 9 -22 9 4 13 -3
12 -16 0 -12 4 -21 11 -20 7 2 10 -6 7 -21 -2 -14 4 -34 17 -50 11 -14 17 -30
14 -36 -3 -5 -1 -10 5 -10 7 0 9 -7 6 -16 -3 -8 -2 -12 4 -9 5 3 12 -6 16 -20
3 -14 11 -25 17 -25 6 0 7 -3 4 -7 -4 -3 0 -17 8 -30 9 -13 13 -28 10 -33 -3
-6 -1 -10 5 -10 6 0 9 -4 6 -9 -3 -5 1 -12 10 -15 8 -3 12 -11 9 -17 -4 -5 1
-17 11 -25 11 -9 13 -12 5 -9 -9 5 -8 0 4 -18 9 -15 14 -30 11 -36 -3 -5 1
-11 9 -15 8 -3 15 -12 15 -21 0 -8 5 -15 11 -15 5 0 7 -4 4 -10 -3 -5 1 -20
10 -33 8 -13 12 -27 8 -30 -3 -4 -1 -7 6 -7 7 0 9 -4 6 -10 -3 -5 -1 -10 6
-10 6 0 9 -8 6 -20 -3 -10 -2 -18 2 -17 3 1 6 -1 6 -4 0 -3 8 -13 17 -23 9 -9
15 -23 12 -31 -4 -8 -1 -15 6 -15 6 0 8 -4 5 -10 -3 -5 -1 -10 6 -10 6 0 9 -8
6 -20 -3 -11 0 -23 5 -27 7 -4 8 -1 3 7 -5 9 -4 11 3 6 7 -4 12 -16 12 -27 0
-11 6 -27 14 -35 8 -8 13 -23 11 -34 -2 -11 0 -18 6 -15 5 4 9 -1 9 -9 0 -9 5
-16 11 -16 5 0 8 -4 4 -9 -3 -5 0 -15 7 -23 13 -14 20 -33 21 -55 0 -7 4 -13
9 -13 4 0 8 -9 8 -20 0 -11 5 -20 10 -20 6 0 10 -5 10 -12 0 -18 33 -88 42
-88 4 0 5 -7 2 -15 -4 -8 -2 -15 4 -15 5 0 13 -7 16 -16 4 -10 2 -13 -7 -8 -6
4 -5 -1 4 -12 9 -10 22 -34 30 -51 8 -18 17 -33 21 -33 4 0 5 -6 2 -14 -3 -7
2 -20 10 -29 9 -9 16 -23 16 -32 0 -9 4 -14 8 -11 5 3 8 -8 7 -24 -1 -16 1
-28 4 -26 3 2 12 -2 19 -10 8 -9 9 -14 2 -14 -7 0 -4 -7 4 -16 9 -8 16 -24 16
-35 0 -10 5 -19 11 -19 5 0 7 -4 4 -10 -3 -5 -2 -10 4 -10 5 0 8 -9 6 -20 -2
-11 0 -18 6 -15 8 6 14 -16 10 -38 -1 -5 3 -6 9 -2 5 3 11 1 11 -4 3 -21 4
-26 12 -38 5 -7 5 -13 2 -13 -4 0 1 -7 9 -16 9 -8 16 -22 16 -30 0 -8 4 -13 9
-10 5 4 7 -3 4 -14 -3 -12 0 -20 6 -20 7 0 10 -4 6 -9 -3 -5 2 -17 11 -25 8
-9 12 -16 9 -16 -4 0 2 -16 14 -36 12 -19 15 -32 9 -28 -7 5 -3 -5 10 -20 12
-16 19 -32 16 -37 -3 -5 0 -9 6 -9 6 0 8 -4 5 -10 -3 -5 -1 -10 5 -10 6 0 9
-3 7 -7 -3 -5 1 -13 8 -20 10 -9 17 -8 30 7 10 11 22 17 26 14 5 -3 9 0 9 6 0
6 5 8 10 5 6 -3 10 -1 10 5 0 6 5 8 10 5 6 -3 10 -2 10 4 0 5 10 13 23 17 12
4 24 10 27 14 11 15 138 79 145 72 4 -4 5 0 3 8 -1 8 4 15 12 15 8 0 19 6 23
13 4 6 15 12 22 12 8 0 15 5 15 10 0 6 7 10 15 10 8 0 15 7 15 15 0 9 -7 18
-15 21 -8 4 -15 10 -15 15 0 6 -9 19 -20 31 -11 12 -20 28 -20 35 0 8 -4 11
-10 8 -5 -3 -10 2 -10 12 0 10 -9 25 -20 33 -11 8 -20 20 -20 27 0 7 -4 13
-10 13 -5 0 -10 7 -10 15 0 8 -4 15 -10 15 -5 0 -10 6 -10 14 0 8 -6 16 -14
19 -8 3 -22 22 -31 41 -10 20 -21 36 -26 36 -5 0 -9 5 -9 10 0 11 -10 24 -42
61 -10 10 -18 23 -18 27 0 5 -8 17 -17 28 -10 10 -29 36 -43 56 -14 21 -29 38
-33 38 -5 0 -6 4 -3 9 3 5 -2 12 -11 15 -15 6 -15 8 -3 16 13 8 12 10 -2 10
-10 0 -18 7 -18 15 0 8 -7 15 -15 15 -14 0 -19 12 -16 33 0 4 -4 7 -9 7 -6 0
-10 7 -10 15 0 8 -4 15 -8 15 -5 0 -19 14 -31 31 -13 18 -17 28 -10 24 8 -4 1
4 -16 19 -16 14 -27 25 -22 26 4 0 -1 9 -10 19 -41 45 -45 51 -31 52 7 0 3 5
-9 11 -13 6 -23 17 -23 25 0 7 -4 13 -10 13 -5 0 -10 4 -10 10 0 5 -9 21 -21
34 -12 13 -20 27 -19 31 1 4 -8 15 -19 24 -11 10 -18 21 -14 25 3 3 -1 6 -10
6 -9 0 -16 4 -14 9 3 11 -20 45 -54 80 -14 14 -24 32 -21 39 2 6 -1 12 -8 12
-6 0 -9 3 -7 8 7 10 -19 32 -29 24 -4 -4 -4 1 -1 11 4 11 1 17 -8 17 -8 0 -15
9 -15 21 0 11 -4 17 -10 14 -5 -3 -10 1 -10 9 0 9 -5 16 -11 16 -5 0 -7 5 -4
10 3 6 -1 10 -9 10 -9 0 -16 7 -16 15 0 9 -9 25 -20 37 -11 12 -20 28 -20 35
0 8 -4 11 -10 8 -5 -3 -10 0 -10 7 0 7 -14 29 -30 48 -28 33 -34 45 -31 63 0
4 -2 6 -6 5 -5 -2 -8 0 -8 4 0 4 -10 15 -22 23 -13 9 -23 22 -23 30 0 7 -13
27 -29 44 -15 16 -26 33 -23 35 3 3 -3 8 -12 12 -9 3 -16 12 -16 20 0 8 -9 22
-20 31 -11 10 -20 23 -20 30 0 7 -4 13 -10 13 -5 0 -10 7 -10 15 0 8 -4 15
-10 15 -5 0 -10 7 -10 16 0 8 -4 12 -10 9 -5 -3 -10 0 -10 8 0 7 -9 23 -19 34
-11 12 -18 23 -15 25 2 3 -4 13 -15 22 -11 10 -22 13 -25 8z"/>
<path d="M11955 13790 c3 -5 2 -10 -3 -10 -5 0 -15 -11 -22 -25 -7 -13 -18
-22 -23 -18 -6 3 -7 1 -4 -4 4 -6 -2 -18 -13 -28 -11 -10 -20 -24 -20 -32 0
-7 -5 -13 -11 -13 -5 0 -8 -4 -5 -9 3 -5 -1 -11 -9 -15 -8 -3 -15 -11 -15 -18
0 -7 -10 -21 -23 -33 -13 -11 -16 -16 -7 -11 8 5 4 -2 -10 -15 -14 -13 -25
-27 -25 -31 0 -4 -9 -18 -20 -30 -11 -13 -19 -26 -18 -29 1 -4 -9 -19 -22 -33
-14 -15 -25 -31 -25 -35 0 -5 -7 -12 -16 -15 -9 -4 -14 -9 -11 -12 9 -9 -25
-44 -36 -37 -6 3 -7 1 -3 -5 7 -11 -52 -102 -67 -102 -4 0 -5 -5 -2 -10 3 -6
-1 -13 -9 -16 -9 -3 -13 -10 -10 -15 3 -5 0 -9 -6 -9 -6 0 -8 -4 -5 -10 3 -5
2 -10 -4 -10 -5 0 -23 -22 -40 -50 -17 -27 -36 -50 -41 -50 -6 0 -9 -4 -6 -9
7 -11 -19 -33 -28 -24 -4 4 -4 0 0 -10 4 -11 0 -19 -10 -23 -9 -3 -16 -12 -16
-20 0 -8 -4 -14 -9 -14 -5 0 -13 -9 -16 -21 -4 -12 -14 -29 -23 -38 -38 -40
-52 -62 -47 -71 4 -6 0 -10 -8 -10 -8 0 -18 -11 -21 -25 -4 -14 -11 -23 -16
-20 -6 3 -10 -3 -10 -15 0 -12 -4 -19 -9 -16 -9 6 -26 -22 -23 -36 1 -4 -7
-12 -18 -18 -11 -6 -18 -15 -15 -21 4 -5 -1 -12 -9 -15 -9 -3 -14 -10 -11 -14
3 -4 -2 -11 -11 -14 -9 -4 -14 -9 -11 -12 3 -3 -3 -14 -14 -25 -10 -10 -19
-26 -19 -34 0 -9 -6 -12 -15 -8 -9 3 -15 2 -14 -3 3 -20 -2 -32 -31 -64 -16
-18 -27 -36 -25 -41 3 -4 -4 -10 -14 -14 -12 -4 -18 -12 -14 -21 3 -7 0 -14
-6 -14 -6 0 -11 -7 -11 -16 0 -8 -4 -13 -8 -10 -5 3 -16 -10 -25 -29 -9 -19
-21 -35 -27 -35 -5 0 -10 -9 -10 -20 0 -11 -3 -19 -7 -18 -5 2 -9 -1 -10 -6 0
-5 -8 -13 -17 -18 -9 -5 -16 -13 -16 -19 0 -10 -10 -24 -42 -60 -10 -10 -18
-24 -18 -30 0 -7 -10 -20 -22 -30 -11 -11 -18 -19 -14 -19 8 0 -10 -22 -36
-48 -10 -9 -18 -22 -18 -29 0 -7 -5 -13 -12 -13 -6 0 -9 -3 -5 -6 3 -4 -4 -15
-16 -26 -12 -11 -15 -16 -7 -13 8 4 2 -5 -15 -20 -16 -14 -23 -23 -15 -19 8 4
5 -3 -8 -16 -13 -12 -21 -29 -18 -37 3 -8 6 -17 6 -19 0 -3 5 -2 10 1 6 3 10
1 10 -5 0 -6 5 -8 10 -5 6 3 10 1 10 -4 0 -6 7 -11 15 -11 8 0 15 -4 15 -10 0
-5 6 -7 14 -4 7 3 16 -2 19 -10 4 -9 13 -16 22 -16 8 0 15 -5 15 -11 0 -5 5
-7 10 -4 6 3 10 1 10 -5 0 -6 5 -8 10 -5 6 3 10 1 10 -5 0 -6 4 -9 9 -6 5 3
11 -1 15 -9 3 -8 15 -15 26 -15 12 0 18 -4 15 -10 -3 -5 3 -10 14 -10 12 0 21
-5 21 -12 0 -6 3 -8 7 -5 3 4 12 -1 20 -11 9 -10 12 -11 7 -2 -4 8 5 4 19 -9
15 -14 32 -21 42 -17 9 3 13 2 10 -4 -3 -6 -2 -10 3 -10 9 0 27 47 24 63 -1 4
3 7 9 7 5 0 7 5 4 10 -3 6 -1 10 5 10 6 0 8 5 5 10 -3 6 -1 10 5 10 7 0 10 7
6 15 -3 8 -1 15 5 15 6 0 7 5 3 12 -5 7 -2 9 8 6 10 -4 14 0 13 15 -1 12 4 30
12 39 8 9 12 21 9 26 -3 6 1 13 10 16 8 3 12 10 9 16 -3 5 -1 10 5 10 6 0 9 4
5 9 -3 5 2 16 10 24 17 18 20 31 4 22 -6 -4 -5 2 3 14 7 12 16 21 21 21 4 0 5
5 2 10 -3 6 1 13 10 16 13 6 14 8 3 15 -9 6 -10 9 -1 9 7 0 10 7 6 17 -4 11
-3 14 5 9 7 -4 12 -3 12 3 0 10 16 48 71 166 13 28 23 52 24 55 0 3 5 12 10
20 5 8 10 21 12 29 1 8 8 18 15 22 7 5 9 9 5 9 -4 0 -2 10 5 23 7 12 11 25 10
30 -1 4 3 7 9 7 5 0 7 5 4 10 -3 6 -1 10 5 10 7 0 10 7 6 15 -3 8 0 15 6 15 6
0 8 3 5 6 -4 4 3 20 14 36 12 16 19 32 16 35 -4 3 1 12 9 20 8 8 12 19 9 24
-4 5 -2 9 3 9 6 0 13 7 16 16 4 10 2 13 -7 9 -6 -4 -5 -1 4 7 17 14 17 15 26
48 3 11 10 20 15 20 6 0 8 7 4 15 -3 8 2 19 12 24 9 6 14 11 10 11 -4 0 -2 13
3 30 6 16 15 27 20 24 5 -3 6 1 3 9 -3 8 0 18 5 22 6 3 9 11 6 16 -4 5 -1 9 4
9 6 0 10 3 10 8 -3 19 2 33 10 28 5 -3 8 7 7 23 -1 16 2 29 7 28 5 -1 14 12
20 28 5 17 14 33 19 36 5 3 9 10 9 15 -2 18 12 49 28 62 12 10 12 12 1 6 -12
-6 -13 -5 -3 7 6 8 12 17 12 22 0 4 8 18 17 32 9 13 13 28 10 34 -3 5 1 11 9
14 7 3 17 22 21 41 3 20 9 34 13 32 4 -3 8 5 8 16 1 12 7 24 13 28 6 4 12 17
13 28 1 12 5 22 9 22 4 0 8 7 8 15 0 8 5 15 12 15 6 0 8 3 5 7 -4 3 0 17 9 31
9 13 11 21 4 17 -6 -4 0 12 15 35 14 23 24 48 21 56 -3 8 -1 12 4 9 5 -3 12 6
16 20 3 14 10 25 15 25 4 0 6 9 4 20 -2 11 0 18 6 15 8 -5 14 15 10 38 0 4 4
7 9 7 6 0 10 7 10 16 0 9 5 12 12 8 8 -5 9 -2 4 11 -4 10 -3 21 2 24 15 10 25
51 12 51 -6 0 -8 -4 -5 -10z"/>
<path d="M8554 13255 c0 -26 11 -34 19 -12 5 14 -2 37 -12 37 -4 0 -7 -11 -7
-25z"/>
<path d="M8567 13225 c-12 -9 -14 -14 -6 -17 7 -2 14 -24 15 -49 1 -24 3 -50
3 -57 1 -8 6 -10 14 -6 8 5 8 2 -2 -9 -7 -9 -9 -17 -4 -17 6 0 9 -13 7 -30 -2
-16 1 -30 7 -30 6 0 6 -6 -1 -19 -7 -14 -7 -20 1 -23 7 -2 12 -28 13 -61 1
-31 4 -57 8 -57 4 0 5 -9 3 -20 -2 -11 1 -22 7 -26 7 -4 6 -9 -2 -14 -8 -5 -7
-12 5 -24 9 -9 12 -16 7 -16 -5 0 -9 -7 -9 -15 0 -8 5 -15 10 -15 5 0 4 -6 -2
-14 -8 -10 -8 -16 3 -25 7 -6 12 -24 10 -41 -2 -17 1 -30 6 -30 6 0 6 -9 0
-25 -6 -15 -6 -26 1 -30 5 -4 7 -11 4 -16 -4 -5 0 -9 7 -9 10 0 10 -2 -1 -9
-9 -6 -10 -11 -3 -15 6 -4 9 -13 5 -21 -3 -8 0 -15 6 -15 6 0 11 -5 11 -11 0
-5 -5 -7 -11 -3 -8 5 -8 1 0 -13 6 -11 8 -23 4 -26 -3 -4 0 -14 8 -24 9 -11
10 -14 2 -9 -10 5 -11 1 -4 -17 6 -14 7 -27 4 -30 -3 -3 -1 -12 3 -19 5 -7 9
-20 9 -28 0 -8 4 -21 8 -27 5 -7 4 -13 -1 -13 -13 0 -7 -43 6 -48 9 -3 9 -9 1
-24 -9 -16 -8 -19 2 -13 8 6 11 4 7 -7 -4 -8 -2 -21 2 -29 6 -8 4 -16 -3 -21
-9 -6 -9 -8 1 -8 6 0 12 -5 12 -11 0 -5 -6 -7 -12 -3 -10 6 -10 5 -1 -8 7 -8
10 -18 6 -21 -3 -4 -1 -7 5 -7 6 0 9 -8 7 -18 -2 -10 6 -24 17 -31 11 -7 17
-8 13 -2 -4 7 5 11 22 11 16 0 35 6 42 13 11 10 12 9 6 -3 -7 -12 -6 -13 6 -3
8 6 25 13 39 15 14 1 31 10 38 18 10 13 11 12 6 -5 -5 -18 -4 -18 8 -4 7 9 21
15 31 13 13 -2 17 5 17 27 0 16 -5 29 -11 29 -5 0 -7 5 -4 10 3 6 1 10 -5 10
-6 0 -8 5 -5 10 4 6 1 18 -7 27 -11 14 -11 16 2 8 8 -4 4 4 -10 20 -14 16 -19
25 -12 21 6 -4 12 -2 12 3 0 6 -5 11 -12 11 -6 0 -8 3 -5 7 4 3 -1 15 -10 26
-13 15 -14 18 -3 12 12 -7 13 -6 3 7 -7 8 -10 18 -6 21 3 4 1 7 -4 7 -6 0 -10
11 -8 25 1 16 -4 29 -15 35 -11 6 -16 19 -14 35 1 15 -3 28 -11 31 -8 4 -12
15 -9 31 3 15 1 22 -6 18 -6 -3 -7 0 -4 9 4 9 1 16 -6 16 -7 0 -10 8 -7 20 3
13 1 18 -6 13 -6 -4 -8 0 -4 10 4 10 2 17 -4 17 -7 0 -9 11 -7 25 3 13 1 23
-5 22 -5 -1 -11 12 -14 28 -2 17 -11 35 -19 41 -11 9 -11 13 -3 16 8 3 6 9 -5
21 -10 9 -14 17 -10 17 3 0 1 6 -5 13 -6 8 -8 17 -4 20 3 4 1 7 -7 7 -10 0
-10 3 0 15 9 10 9 15 1 15 -6 0 -11 9 -11 19 0 10 -7 21 -15 25 -8 3 -12 12
-9 20 3 8 0 17 -6 21 -8 5 -7 11 2 23 10 12 10 14 1 8 -9 -5 -13 -1 -13 11 0
11 -5 24 -11 30 -5 5 -12 23 -13 39 -2 16 -9 28 -14 27 -6 -2 -9 6 -7 17 2 11
0 22 -6 25 -5 4 -9 15 -9 26 0 10 -4 19 -9 19 -4 0 -7 11 -6 25 2 14 -1 25 -6
25 -5 0 -8 3 -7 8 0 4 -1 14 -5 22 -3 8 -7 20 -9 27 -2 9 -8 8 -21 -2z"/>
<path d="M10590 13220 c0 -5 5 -10 10 -10 6 0 10 5 10 10 0 6 -4 10 -10 10 -5
0 -10 -4 -10 -10z"/>
<path d="M10575 13184 c-9 -9 -14 -23 -11 -30 3 -8 1 -14 -4 -14 -5 0 -7 -7
-4 -15 4 -10 0 -15 -12 -15 -15 0 -16 -2 -5 -9 9 -6 10 -11 2 -15 -6 -4 -9
-11 -6 -16 3 -5 1 -11 -5 -15 -6 -4 -8 -11 -5 -16 4 -5 1 -9 -4 -9 -6 0 -10
-3 -10 -7 3 -20 -2 -34 -10 -29 -5 4 -7 -3 -4 -14 3 -12 0 -20 -7 -20 -10 0
-10 -3 0 -15 11 -13 10 -14 -4 -9 -12 5 -15 2 -10 -10 3 -9 1 -16 -5 -16 -6 0
-11 -11 -11 -25 0 -14 -4 -25 -10 -25 -5 0 -6 -7 -3 -17 4 -10 2 -14 -4 -10
-7 4 -10 0 -9 -10 2 -10 -1 -21 -6 -24 -5 -3 -10 -12 -12 -20 -6 -38 -18 -59
-29 -52 -7 4 -6 -1 2 -10 10 -12 10 -17 1 -17 -6 0 -10 -6 -8 -12 3 -7 -5 -21
-16 -31 -12 -10 -15 -16 -8 -12 15 8 15 3 0 -30 -6 -14 -15 -25 -20 -25 -5 0
-6 -4 -3 -10 3 -5 -1 -22 -9 -38 -8 -16 -12 -32 -9 -36 4 -3 -2 -6 -13 -6 -14
0 -16 -2 -5 -9 9 -6 10 -11 2 -15 -6 -4 -9 -12 -6 -17 4 -5 1 -9 -5 -9 -6 0
-10 -6 -9 -12 1 -7 -5 -30 -14 -50 -10 -21 -17 -42 -17 -48 0 -5 -4 -10 -10
-10 -5 0 -9 -3 -9 -7 1 -5 0 -11 -1 -15 -1 -5 -3 -11 -5 -15 -14 -52 -18 -62
-25 -58 -4 2 -7 -3 -7 -13 0 -42 -4 -54 -15 -49 -8 3 -14 -6 -15 -24 -3 -49
-6 -59 -16 -59 -5 0 -6 -7 -3 -16 3 -8 2 -12 -4 -9 -6 3 -10 -2 -10 -12 0 -11
-5 -24 -12 -31 -9 -9 -9 -12 3 -13 7 -1 17 -1 22 0 4 0 7 -3 7 -7 0 -5 6 -9
13 -9 22 -1 42 -8 49 -18 5 -6 8 -5 8 3 0 11 3 11 14 -1 8 -7 25 -13 38 -12
12 1 26 -2 29 -7 3 -5 16 -10 27 -11 12 -1 22 -6 22 -11 0 -17 13 3 16 26 4
30 12 63 15 63 2 0 6 29 11 77 1 20 6 34 9 32 4 -2 7 9 8 24 1 52 4 67 13 79
6 7 8 20 4 28 -3 8 0 15 7 15 8 0 8 3 -2 9 -9 6 -10 11 -2 15 6 4 9 12 6 17
-4 5 -1 9 6 9 8 0 7 5 -2 17 -12 15 -12 16 5 10 15 -6 17 -5 8 6 -7 8 -10 16
-7 18 2 3 6 22 9 43 3 20 11 45 18 54 9 11 10 14 1 8 -7 -4 -13 -2 -13 3 0 6
4 11 8 11 5 0 7 14 6 30 -1 17 2 30 6 30 5 0 7 11 5 25 -1 14 2 25 7 25 6 0 8
7 5 15 -4 8 -2 17 3 20 7 4 6 13 0 25 -7 13 -7 21 0 25 5 3 10 18 10 33 0 21
2 24 10 12 13 -20 13 -4 0 21 -6 10 -7 19 -2 19 5 0 8 13 7 30 -2 18 1 27 8
23 7 -4 8 5 4 26 -4 18 -3 30 2 27 4 -3 7 6 5 19 -1 14 2 25 7 25 4 0 6 6 3
14 -3 8 -1 17 5 21 8 4 8 12 1 26 -8 14 -7 19 1 19 6 0 9 7 5 15 -3 8 -2 15 3
15 5 0 7 11 6 25 -2 14 1 25 6 25 5 0 7 11 5 25 -3 15 2 31 12 41 15 15 14 16
-7 9 -21 -6 -22 -5 -10 8 8 8 18 12 23 9 5 -3 6 0 2 6 -9 15 -11 15 -31 -4z"/>
<path d="M6757 12344 c-7 -8 12 -43 35 -65 10 -9 15 -19 11 -23 -3 -3 1 -6 10
-6 10 0 17 -6 17 -14 0 -8 7 -17 16 -20 8 -3 12 -10 9 -16 -3 -5 1 -10 10 -10
9 0 13 -4 10 -10 -3 -5 -1 -10 5 -10 6 0 14 -8 17 -17 4 -9 14 -24 22 -34 53
-57 69 -78 63 -83 -3 -3 0 -6 6 -6 6 0 14 -9 17 -20 3 -11 14 -20 22 -20 9 0
14 -3 10 -6 -3 -3 3 -15 14 -27 10 -11 19 -27 19 -34 0 -8 4 -12 8 -9 5 3 15
-6 22 -19 7 -14 17 -25 22 -25 4 0 8 -6 8 -13 0 -7 9 -19 20 -27 11 -8 20 -18
20 -23 0 -5 14 -22 30 -37 17 -16 31 -33 31 -37 1 -9 33 -53 69 -94 14 -15 36
-43 50 -60 14 -18 30 -38 37 -45 7 -6 9 -14 6 -18 -4 -3 1 -6 11 -6 9 0 14 -4
11 -10 -3 -5 3 -15 15 -22 11 -7 20 -18 20 -25 0 -6 13 -24 29 -39 17 -15 28
-31 25 -36 -3 -4 2 -8 10 -8 9 0 16 -7 16 -15 0 -8 5 -15 11 -15 6 0 9 -7 6
-14 -4 -10 -1 -13 9 -9 9 3 14 -1 15 -13 0 -13 4 -11 11 9 5 15 16 27 24 27 8
0 14 8 14 18 0 14 2 15 10 2 7 -11 10 -11 10 -2 0 7 26 38 58 69 34 33 52 58
45 60 -7 3 -13 11 -13 19 0 8 -6 13 -12 11 -7 -1 -12 4 -11 10 2 7 -8 15 -22
19 -14 3 -22 10 -19 15 3 5 -2 9 -11 9 -8 0 -18 7 -21 15 -3 8 -14 17 -25 20
-11 4 -17 11 -14 16 4 5 1 9 -4 9 -6 0 -24 14 -39 30 -16 17 -33 30 -38 30 -5
0 -16 9 -24 20 -8 11 -20 20 -28 20 -7 0 -10 5 -7 10 3 6 1 10 -5 10 -7 0 -25
14 -41 31 -16 17 -29 28 -29 23 0 -4 -14 7 -31 24 -17 18 -36 32 -41 32 -5 0
-7 4 -4 9 3 5 -4 11 -15 14 -12 3 -18 10 -14 17 3 6 3 10 -2 9 -16 -4 -43 13
-43 27 0 8 -9 14 -21 14 -12 0 -23 8 -26 20 -3 11 -11 20 -17 20 -6 0 -18 9
-26 20 -8 11 -20 20 -28 20 -7 0 -10 5 -7 10 3 6 0 10 -7 10 -8 0 -21 8 -30
18 -38 39 -87 82 -95 82 -4 0 -19 14 -33 30 -14 17 -31 30 -38 30 -7 0 -10 5
-7 10 3 6 1 10 -5 10 -6 0 -22 11 -36 25 -14 14 -36 33 -50 41 -13 9 -21 20
-18 25 3 5 0 8 -8 7 -7 -2 -12 3 -10 10 2 13 -1 15 -11 6z"/>
<path d="M12310 12141 c0 -4 -18 -21 -40 -36 -22 -15 -37 -31 -34 -36 3 -5 -1
-9 -8 -9 -8 0 -28 -13 -46 -29 -17 -17 -32 -27 -32 -24 0 3 -12 -6 -26 -20
-15 -15 -30 -24 -35 -21 -5 3 -8 2 -7 -3 2 -4 1 -8 -2 -8 -11 0 -38 -30 -33
-37 2 -5 -2 -8 -11 -8 -8 0 -27 -13 -43 -28 -15 -16 -36 -31 -45 -35 -10 -3
-18 -11 -18 -17 0 -5 -6 -10 -13 -10 -7 0 -20 -8 -28 -17 -25 -28 -58 -53 -70
-53 -5 0 -7 -4 -4 -10 3 -5 1 -10 -5 -10 -12 0 -32 -15 -58 -42 -9 -10 -20
-18 -25 -18 -4 0 -19 -12 -32 -26 -14 -15 -25 -23 -25 -18 0 5 -5 1 -11 -9 -6
-9 -14 -15 -20 -12 -5 4 -9 -1 -9 -10 0 -9 -4 -13 -10 -10 -5 3 -10 2 -10 -4
0 -5 -13 -18 -29 -27 -17 -10 -28 -21 -25 -26 3 -4 -2 -8 -12 -8 -9 0 -26 -10
-38 -22 -33 -34 -76 -69 -76 -61 0 3 -11 -6 -25 -21 -13 -14 -27 -26 -31 -26
-4 0 -17 -11 -29 -24 -13 -14 -26 -22 -29 -19 -3 4 -6 1 -6 -6 0 -7 14 -26 30
-41 17 -15 30 -34 30 -41 0 -7 3 -10 6 -6 6 6 94 -81 94 -94 0 -12 29 -4 43
11 10 12 9 12 -8 1 -11 -8 -1 4 23 26 23 22 42 48 42 58 0 11 5 15 14 12 9 -4
16 3 20 19 4 14 11 22 16 19 6 -3 10 -2 10 4 0 6 13 26 30 44 16 19 26 37 22
41 -4 4 -2 7 3 6 21 -5 36 0 30 10 -3 6 1 13 9 16 9 3 14 10 11 14 -3 4 2 10
10 14 8 3 15 11 15 18 0 7 13 22 29 33 16 10 28 22 25 26 -2 3 8 15 21 25 14
10 25 23 25 28 0 5 11 19 26 32 14 13 23 24 20 24 -3 0 8 15 25 33 83 90 109
121 109 133 0 8 6 11 15 8 10 -4 15 0 15 16 0 11 4 19 9 16 9 -6 26 22 23 37
-1 4 4 6 11 5 6 -2 11 2 10 9 -2 6 6 15 17 18 11 4 18 10 15 15 -3 4 2 10 10
14 8 3 15 12 15 21 0 8 3 14 8 13 4 -2 8 0 9 5 2 4 18 23 38 43 19 19 35 38
35 42 0 4 9 13 20 20 11 7 20 19 20 27 0 8 5 15 10 15 6 0 10 5 10 10 0 6 -4
10 -10 10 -5 0 -10 -4 -10 -9z"/>
<path d="M5104 11958 c-4 -7 -3 -8 5 -4 6 4 14 1 17 -7 3 -9 19 -21 35 -27 16
-7 26 -16 23 -21 -3 -5 2 -9 11 -9 9 0 23 -7 32 -15 8 -8 20 -12 26 -8 7 3 9
3 5 -2 -8 -8 15 -35 31 -35 5 0 15 -8 20 -17 6 -10 11 -14 11 -9 0 5 8 -1 19
-12 10 -12 21 -19 24 -15 4 3 9 -2 13 -11 3 -9 15 -16 26 -16 10 0 16 -4 13
-10 -3 -5 1 -10 9 -10 9 0 16 -4 16 -10 0 -5 7 -10 15 -10 8 0 15 -4 15 -10 0
-5 7 -10 16 -10 8 0 12 -4 9 -10 -3 -5 2 -10 12 -10 10 0 25 -9 33 -20 8 -11
20 -20 27 -20 6 0 17 -8 22 -17 6 -10 11 -14 11 -10 0 7 11 0 45 -31 8 -7 15
-10 15 -6 0 4 9 -3 20 -16 11 -13 20 -19 20 -14 0 5 5 1 11 -9 6 -9 14 -15 20
-12 5 4 12 -1 15 -9 3 -9 12 -16 20 -16 7 0 18 -9 24 -21 7 -12 18 -18 26 -15
8 3 14 -1 14 -9 0 -8 7 -15 15 -15 8 0 15 -4 15 -10 0 -5 7 -10 15 -10 8 0 15
-4 15 -10 0 -5 7 -10 15 -10 8 0 15 -4 15 -10 0 -5 7 -10 15 -10 8 0 15 -7 15
-17 0 -9 3 -13 6 -10 11 11 65 -33 57 -46 -4 -8 -1 -7 9 1 14 11 17 10 23 -7
3 -11 12 -20 18 -18 7 1 11 -3 10 -10 -2 -7 4 -10 12 -7 9 4 15 0 15 -10 0
-10 6 -13 15 -10 8 4 15 1 15 -6 0 -6 5 -8 10 -5 6 3 10 -1 10 -10 0 -9 5 -13
10 -10 6 3 10 1 10 -4 0 -6 5 -11 12 -11 6 0 18 -7 27 -15 9 -9 41 -34 71 -55
30 -22 60 -44 66 -49 7 -5 15 -7 18 -4 3 4 6 -2 6 -12 0 -10 3 -15 6 -12 10
10 45 -13 38 -25 -4 -6 -1 -9 7 -6 8 3 24 -6 36 -19 12 -13 25 -23 28 -23 21
1 26 -1 21 -8 -3 -5 10 -15 29 -22 19 -7 32 -17 29 -22 -3 -4 2 -8 10 -8 9 0
16 -4 16 -8 0 -5 12 -15 27 -23 31 -16 55 -34 86 -64 11 -11 16 -13 12 -5 -4
8 1 6 13 -5 34 -32 52 -46 52 -40 0 3 10 -3 22 -15 12 -11 26 -20 30 -20 5 0
6 -5 3 -11 -4 -6 -1 -9 7 -7 13 3 25 -5 69 -44 10 -10 26 -18 35 -18 8 0 12
-4 9 -10 -3 -5 1 -10 9 -10 9 0 16 -5 16 -11 0 -6 7 -8 16 -5 8 3 12 2 9 -4
-3 -6 -2 -10 4 -10 5 0 16 -7 25 -15 14 -15 51 -10 41 5 -3 4 2 13 10 20 8 7
15 18 15 25 0 7 7 18 15 25 8 7 15 21 15 31 0 10 6 22 14 26 8 4 15 13 16 18
6 27 21 55 30 55 6 0 9 4 6 9 -3 4 3 19 14 31 11 13 20 29 20 37 0 7 5 13 10
13 6 0 10 7 10 16 0 9 5 12 12 8 7 -5 8 -3 3 6 -4 7 -3 15 2 19 6 3 14 17 18
30 6 20 4 23 -9 18 -10 -4 -14 -3 -11 2 5 8 -25 24 -48 26 -4 0 -12 7 -17 15
-5 8 -10 12 -10 7 0 -4 -15 -1 -34 7 -19 8 -38 11 -42 8 -4 -4 -4 -2 -1 4 8
13 -13 24 -44 24 -11 0 -17 5 -14 10 3 6 -3 10 -14 10 -11 0 -23 5 -26 10 -3
6 -15 10 -26 10 -10 0 -19 5 -19 11 0 6 -7 9 -15 5 -8 -3 -21 1 -29 9 -8 8
-19 15 -25 15 -6 0 -11 5 -11 10 0 6 -9 10 -20 10 -12 0 -32 7 -45 16 -14 9
-25 12 -25 8 0 -5 -4 -4 -8 1 -4 6 -17 15 -29 22 -17 10 -23 10 -26 0 -3 -7
-6 -4 -6 7 -1 12 -6 16 -16 12 -8 -3 -15 -1 -15 4 0 6 -7 10 -15 10 -8 0 -15
4 -15 8 0 5 -7 9 -15 10 -8 1 -22 3 -30 4 -8 1 -17 8 -19 15 -3 8 -10 11 -16
8 -5 -3 -10 -1 -10 5 0 6 -4 9 -9 5 -5 -3 -15 0 -23 7 -7 7 -22 14 -32 16 -10
2 -25 10 -33 18 -16 16 -27 19 -18 4 3 -5 -14 2 -37 15 -24 14 -51 25 -61 25
-11 0 -15 5 -11 11 4 7 1 10 -7 7 -8 -3 -20 1 -27 9 -7 7 -22 13 -33 13 -10 0
-19 5 -19 11 0 5 -5 7 -10 4 -6 -3 -13 1 -16 10 -6 13 -8 14 -15 3 -7 -10 -9
-10 -9 0 0 6 -12 12 -26 12 -14 0 -23 4 -19 10 3 6 -3 10 -14 10 -12 0 -21 5
-21 11 0 5 -4 8 -9 4 -5 -3 -13 0 -16 6 -4 5 -13 8 -21 5 -8 -3 -17 1 -20 9
-4 8 -10 12 -15 9 -5 -3 -9 0 -9 5 0 6 -3 10 -7 10 -19 -3 -34 2 -29 9 2 4 -7
9 -22 10 -14 1 -29 7 -33 13 -3 6 -9 10 -13 10 -3 -1 -23 6 -44 15 -20 10 -40
16 -44 16 -5 -1 -8 6 -8 16 0 14 -2 15 -10 2 -6 -10 -10 -11 -10 -2 0 6 -3 11
-7 11 -23 -4 -43 2 -38 11 5 9 -8 12 -31 9 -4 0 -10 4 -14 11 -4 6 -17 12 -28
13 -12 1 -22 5 -22 9 0 4 -7 8 -15 8 -8 0 -15 5 -15 12 0 6 -3 9 -6 5 -3 -3
-19 -1 -36 5 -23 8 -27 13 -16 20 9 7 8 8 -6 4 -10 -4 -29 1 -42 9 -13 9 -24
12 -24 9 0 -4 -9 1 -19 10 -11 10 -25 15 -30 11 -6 -3 -11 -1 -11 4 0 6 -7 11
-16 11 -8 0 -13 4 -10 8 2 4 -7 9 -22 10 -15 1 -29 7 -30 12 -2 6 -8 8 -13 4
-5 -3 -9 -1 -9 5 0 6 -7 7 -17 4 -12 -5 -14 -3 -8 7 6 10 4 12 -8 7 -9 -3 -18
0 -21 8 -3 8 -12 12 -21 9 -8 -3 -15 -1 -15 6 0 6 -4 8 -10 5 -5 -3 -10 -1
-10 4 0 6 -9 11 -20 11 -11 0 -20 5 -20 10 0 6 -9 10 -19 10 -11 0 -23 5 -26
10 -3 6 -15 10 -26 10 -10 0 -19 5 -19 10 0 14 -17 13 -26 -2z"/>
<path d="M13774 11953 c-9 -7 -21 -10 -25 -7 -5 3 -9 0 -9 -5 0 -6 -9 -11 -20
-11 -11 0 -20 -7 -20 -15 0 -8 -6 -12 -14 -9 -8 3 -17 0 -21 -5 -3 -6 -11 -9
-16 -6 -5 4 -9 1 -9 -5 0 -6 -8 -10 -17 -8 -10 2 -17 -2 -16 -7 1 -6 -7 -12
-18 -13 -42 -4 -48 -6 -43 -14 5 -8 0 -10 -28 -12 -7 -1 -17 -4 -23 -9 -22
-17 -104 -53 -98 -43 4 5 -8 0 -25 -13 -18 -12 -32 -19 -32 -16 0 4 -7 -1 -16
-10 -9 -9 -22 -14 -29 -11 -8 3 -16 -2 -19 -11 -4 -9 -14 -13 -25 -10 -12 3
-22 -1 -26 -11 -3 -8 -8 -12 -12 -8 -3 3 -15 -1 -25 -11 -10 -9 -18 -13 -18
-8 0 4 -11 0 -25 -9 -13 -9 -31 -16 -40 -16 -9 0 -18 -7 -21 -15 -4 -8 -10
-13 -14 -10 -4 2 -31 -7 -59 -21 -29 -13 -57 -21 -63 -18 -6 4 -8 3 -4 -4 5
-9 -32 -29 -43 -23 -2 2 -8 -4 -13 -13 -5 -9 -14 -13 -20 -10 -6 4 -14 1 -18
-6 -4 -6 -19 -13 -33 -13 -14 -1 -25 -6 -24 -12 1 -5 -7 -9 -18 -9 -11 0 -24
-6 -28 -13 -4 -7 -17 -13 -27 -13 -11 0 -20 -5 -20 -12 0 -6 -3 -8 -7 -5 -3 4
-15 -1 -26 -10 -11 -10 -17 -12 -13 -5 7 11 4 11 -15 0 -13 -7 -27 -17 -31
-23 -4 -5 -10 -6 -14 -3 -3 4 -13 0 -21 -8 -8 -8 -19 -12 -24 -9 -5 4 -9 1 -9
-5 0 -6 -5 -8 -10 -5 -6 3 -13 -1 -16 -9 -3 -9 -10 -13 -15 -10 -6 3 -15 1
-22 -4 -7 -5 -33 -17 -59 -27 -26 -10 -45 -21 -42 -26 3 -5 -1 -6 -9 -3 -8 3
-18 0 -22 -5 -3 -6 -11 -9 -16 -6 -5 4 -9 1 -9 -5 0 -6 -4 -8 -10 -5 -5 3 -10
1 -10 -5 0 -6 -4 -9 -9 -6 -5 3 -12 -1 -15 -9 -5 -13 -10 -14 -27 -4 -16 8
-20 8 -14 0 4 -7 -6 -16 -24 -22 -17 -6 -31 -15 -31 -21 0 -5 -4 -7 -9 -4 -13
8 -42 -4 -36 -15 3 -4 -3 -6 -14 -4 -10 2 -28 -5 -39 -15 -11 -10 -22 -17 -25
-14 -2 3 -20 -4 -40 -15 -19 -11 -38 -17 -41 -14 -3 4 -6 1 -6 -6 0 -7 -4 -10
-9 -6 -6 3 -13 -1 -18 -8 -4 -7 -19 -13 -33 -13 -14 0 -24 -6 -22 -12 2 -11
-18 -17 -40 -13 -5 0 -8 -3 -8 -9 0 -6 -3 -9 -7 -8 -5 1 -29 -8 -55 -20 -26
-12 -52 -22 -58 -22 -6 0 -8 -6 -4 -12 4 -7 4 -10 0 -6 -10 9 -66 -11 -66 -24
0 -5 -4 -6 -10 -3 -5 3 -10 2 -10 -4 0 -18 23 -61 33 -61 5 0 7 -6 4 -13 -3
-7 6 -23 19 -36 13 -13 24 -32 24 -43 0 -10 5 -16 10 -13 6 3 10 -3 10 -14 0
-12 5 -21 11 -21 5 0 7 -4 4 -10 -3 -5 -1 -10 5 -10 7 0 9 -7 6 -17 -4 -10 -4
-14 0 -11 7 8 43 -42 65 -90 7 -17 17 -32 21 -32 5 0 8 -7 8 -15 0 -21 24 -19
45 5 10 11 23 20 28 20 5 0 20 11 33 26 13 14 24 22 24 18 0 -4 10 2 23 14 13
12 27 19 30 15 4 -3 7 1 7 11 0 9 4 15 9 11 6 -3 19 5 30 17 12 12 21 18 21
13 0 -4 9 2 20 15 11 13 20 19 20 15 0 -4 8 2 19 13 10 12 21 19 25 15 3 -3 6
0 6 7 0 7 3 10 6 7 4 -4 17 5 29 19 13 15 27 24 32 21 5 -3 16 3 24 15 8 11
24 24 37 29 14 5 20 14 16 21 -4 7 -3 8 4 4 11 -6 32 7 74 47 10 9 18 14 18
10 0 -5 7 1 15 11 8 11 15 17 15 13 0 -4 10 1 22 13 12 11 28 20 35 20 7 0 17
9 23 20 6 11 15 18 19 15 5 -3 12 2 15 11 3 8 10 13 15 9 5 -3 17 5 25 17 9
12 16 18 16 13 0 -6 7 -2 15 9 8 11 19 15 27 10 7 -4 10 -4 6 1 -8 9 15 35 31
35 6 0 11 5 11 11 0 6 7 9 15 5 8 -3 14 -2 12 2 -1 4 0 7 3 7 3 0 12 6 20 13
8 7 24 20 35 28 11 9 14 12 6 8 -9 -5 -12 -3 -7 5 4 6 11 9 16 6 4 -2 23 9 41
25 19 16 40 30 47 30 6 0 12 5 12 10 0 6 6 10 13 10 7 0 19 9 27 19 7 11 17
18 21 16 4 -3 10 2 13 11 4 9 13 14 22 10 8 -3 13 -2 11 2 -4 8 29 42 36 36 2
-2 10 2 17 11 7 8 17 15 22 15 5 0 23 13 41 30 18 16 37 30 44 30 7 0 16 6 20
13 12 20 79 58 88 49 5 -4 5 -2 2 4 -6 10 33 45 48 44 3 0 17 12 30 26 14 15
25 23 25 18 0 -5 5 -2 10 6 5 8 14 15 20 15 6 0 14 5 18 11 4 6 15 13 25 17
11 4 15 12 11 18 -4 8 -3 9 4 5 6 -4 20 2 32 14 11 11 20 17 20 13 0 -3 9 4
19 16 11 12 22 22 25 22 20 -3 26 0 21 9 -3 6 1 10 10 10 10 0 13 5 9 12 -5 7
-3 8 6 3 7 -4 16 -2 21 6 4 8 12 14 16 14 5 0 15 6 23 12 55 46 78 62 84 56 3
-3 6 2 6 13 0 11 3 15 8 8 4 -6 13 -4 24 7 16 17 16 18 -2 16 -10 -1 -26 -7
-36 -14z"/>
<path d="M9402 11841 c-7 -4 -30 -6 -53 -4 -27 2 -38 0 -33 -8 5 -8 1 -8 -14
0 -27 14 -35 14 -26 -1 6 -10 4 -10 -8 0 -12 9 -18 10 -23 2 -5 -8 -11 -8 -21
1 -8 7 -14 7 -14 1 0 -5 -9 -12 -20 -15 -12 -3 -18 -1 -14 5 4 6 -3 5 -15 -1
-16 -9 -21 -9 -21 1 0 10 -3 10 -9 -1 -5 -8 -16 -11 -25 -8 -9 4 -16 2 -16 -2
0 -5 -10 -7 -22 -3 -16 4 -19 2 -13 -9 8 -12 6 -12 -8 0 -11 9 -17 10 -17 2 0
-7 -10 -10 -25 -7 -14 3 -25 0 -25 -5 0 -6 -5 -7 -10 -4 -6 4 -18 1 -27 -7
-14 -11 -16 -11 -8 2 7 12 6 13 -7 3 -8 -7 -18 -10 -21 -6 -4 3 -7 0 -7 -8 0
-11 -2 -11 -10 1 -6 9 -10 11 -10 3 0 -7 -6 -10 -14 -7 -8 3 -17 1 -21 -5 -3
-6 -16 -11 -29 -11 -12 0 -26 -3 -30 -7 -8 -8 -34 -14 -59 -14 -9 0 -15 -4
-12 -10 4 -5 -5 -9 -19 -9 -14 0 -26 -4 -26 -8 0 -4 -9 -9 -20 -10 -46 -4 -51
-6 -46 -18 4 -10 -1 -11 -19 -4 -18 7 -24 6 -22 -3 1 -7 -6 -11 -15 -9 -10 2
-18 -2 -18 -7 0 -5 -9 -8 -21 -6 -15 3 -19 0 -15 -11 3 -8 1 -12 -4 -9 -5 3
-20 -1 -33 -10 -13 -8 -27 -12 -30 -8 -4 3 -7 1 -7 -6 0 -7 -4 -9 -10 -6 -5 3
-10 1 -10 -5 0 -6 -4 -8 -10 -5 -5 3 -10 1 -10 -4 0 -6 -9 -11 -20 -11 -11 0
-20 -4 -20 -10 0 -5 -7 -10 -15 -10 -8 0 -15 -4 -15 -10 0 -5 -8 -7 -17 -3
-10 3 -15 3 -11 -2 7 -7 -57 -48 -94 -61 -10 -4 -18 -10 -18 -15 0 -5 -7 -9
-15 -9 -7 0 -18 -6 -22 -14 -4 -8 -14 -16 -22 -18 -7 -2 -30 -18 -50 -35 -20
-18 -41 -33 -48 -33 -7 0 -17 -9 -23 -20 -6 -11 -15 -18 -20 -15 -5 3 -14 -4
-20 -15 -6 -11 -14 -19 -18 -16 -9 5 -32 -20 -25 -28 4 -3 1 -6 -7 -6 -7 0
-29 -17 -49 -37 -20 -21 -49 -48 -65 -60 -16 -13 -26 -23 -22 -23 3 0 -3 -9
-14 -20 -11 -11 -24 -20 -30 -20 -5 0 -10 -7 -10 -15 0 -8 -4 -15 -9 -15 -5 0
-13 -9 -16 -20 -4 -11 -9 -19 -13 -17 -4 2 -17 -7 -29 -20 -12 -13 -20 -23
-17 -23 5 0 3 -3 -39 -51 -12 -14 -28 -36 -36 -47 -8 -12 -18 -19 -23 -16 -4
3 -5 -2 -2 -10 4 -9 -1 -18 -10 -22 -9 -3 -16 -12 -16 -20 0 -8 -5 -14 -12
-14 -6 0 -9 -3 -5 -6 3 -4 1 -12 -6 -20 -30 -33 -35 -42 -30 -48 4 -3 1 -6 -5
-6 -7 0 -12 -7 -12 -15 0 -7 -8 -18 -17 -24 -10 -5 -16 -11 -14 -13 5 -5 -32
-78 -41 -78 -4 0 -8 -9 -8 -20 0 -11 -5 -20 -11 -20 -5 0 -7 -4 -4 -10 3 -5 1
-10 -5 -10 -6 0 -8 -5 -5 -10 3 -6 0 -13 -8 -16 -8 -3 -13 -16 -11 -30 1 -13
-1 -22 -6 -19 -5 3 -11 -8 -15 -24 -3 -16 -13 -32 -21 -35 -9 -3 -12 -11 -9
-16 4 -6 -3 -27 -14 -46 -12 -19 -15 -32 -9 -28 10 6 10 5 1 -8 -7 -8 -10 -18
-6 -21 3 -4 1 -7 -5 -7 -7 0 -12 -9 -12 -21 0 -11 -4 -18 -9 -15 -4 3 -7 -6
-5 -19 1 -14 -1 -25 -6 -25 -4 0 -6 -10 -2 -22 3 -14 2 -19 -6 -14 -8 5 -12
-3 -12 -23 0 -16 -5 -33 -11 -36 -6 -4 -8 -13 -5 -21 3 -8 0 -14 -7 -14 -8 0
-8 -3 2 -9 11 -7 10 -11 -5 -20 -13 -7 -15 -10 -4 -11 11 0 11 -3 2 -12 -7 -7
-12 -27 -12 -44 0 -18 -5 -36 -11 -40 -6 -3 -9 -19 -7 -35 3 -16 0 -29 -5 -29
-5 0 -4 -6 2 -14 10 -11 8 -17 -6 -25 -13 -8 -14 -10 -3 -11 10 0 11 -3 3 -11
-6 -6 -9 -18 -6 -27 5 -11 3 -13 -7 -7 -10 6 -11 4 -4 -6 11 -18 5 -62 -10
-71 -8 -6 -8 -8 2 -8 14 0 12 -21 -3 -32 -6 -5 -6 -8 1 -8 9 0 12 -38 4 -47
-7 -9 -5 -30 4 -42 8 -11 8 -13 0 -8 -7 4 -11 -5 -12 -25 -1 -25 2 -29 10 -18
8 12 9 11 4 -3 -3 -10 -6 -21 -6 -23 0 -3 -5 -2 -11 2 -8 4 -8 1 -1 -12 5 -11
7 -25 5 -31 -3 -7 1 -13 9 -13 11 0 11 -2 -1 -9 -11 -7 -11 -13 0 -32 12 -23
11 -23 -6 -9 -17 14 -18 14 -6 -8 7 -13 10 -26 7 -29 -3 -4 0 -13 7 -21 10
-13 9 -14 -3 -7 -13 8 -13 7 -1 -8 11 -14 11 -17 0 -17 -11 0 -11 -2 1 -10 13
-9 13 -10 0 -10 -9 0 -11 -3 -5 -8 6 -4 12 -27 13 -52 6 -83 7 -90 17 -90 5 0
4 -5 -2 -11 -9 -9 -7 -18 5 -37 10 -15 11 -23 5 -19 -7 5 -13 4 -13 -2 0 -6 4
-11 9 -11 5 0 7 -9 4 -20 -3 -11 -1 -20 4 -20 5 0 10 -16 11 -37 2 -20 5 -40
8 -45 3 -4 -1 -8 -8 -8 -10 0 -9 -3 2 -9 8 -6 17 -8 21 -5 4 2 4 -9 -1 -26 -6
-20 -5 -30 2 -30 5 0 8 -7 4 -15 -3 -8 2 -19 12 -24 9 -6 13 -11 8 -11 -5 0
-3 -6 3 -14 9 -11 9 -16 0 -21 -8 -6 -8 -9 0 -15 7 -4 13 -17 14 -28 1 -12 5
-22 9 -22 4 0 8 -11 8 -24 0 -13 4 -26 10 -28 5 -1 11 -15 12 -30 1 -16 6 -28
11 -28 4 0 5 -4 2 -10 -3 -5 -1 -10 6 -10 7 0 9 -3 6 -6 -3 -4 -1 -16 5 -28 7
-11 11 -24 10 -28 -1 -5 3 -8 8 -8 6 0 10 -9 10 -20 0 -11 5 -20 11 -20 5 0 8
-4 4 -9 -3 -5 2 -17 11 -25 11 -11 12 -16 3 -16 -8 0 -6 -5 5 -13 9 -7 18 -19
20 -27 6 -31 18 -50 29 -43 5 3 7 1 3 -5 -3 -6 -2 -13 4 -17 5 -3 10 -15 10
-26 0 -11 5 -17 10 -14 6 3 10 -3 10 -14 0 -12 3 -21 8 -21 4 0 18 -20 31 -45
13 -24 27 -42 32 -39 5 3 9 -4 9 -15 0 -12 5 -21 10 -21 6 0 10 -5 10 -11 0
-11 66 -98 85 -111 6 -4 7 -8 3 -8 -4 0 0 -9 9 -19 9 -11 20 -18 25 -15 4 3 8
0 8 -5 0 -6 0 -13 0 -16 0 -2 34 -39 75 -81 41 -42 75 -81 75 -87 0 -6 3 -8 6
-4 3 3 21 -10 39 -29 18 -19 38 -34 45 -34 6 0 8 -4 5 -10 -3 -5 -2 -10 3 -10
5 0 23 -13 40 -30 18 -16 35 -30 40 -30 4 0 14 -9 22 -19 7 -11 17 -18 21 -15
5 2 13 -5 19 -16 6 -11 15 -18 21 -15 5 4 9 1 9 -4 0 -6 6 -11 14 -11 8 0 16
-7 20 -15 3 -8 12 -15 21 -15 8 0 15 -5 15 -11 0 -5 5 -7 10 -4 6 3 10 -1 10
-10 0 -9 4 -14 9 -11 5 3 14 -1 21 -10 7 -8 19 -13 26 -10 8 3 18 -4 24 -14 6
-11 17 -20 25 -20 8 0 15 -4 15 -10 0 -5 7 -10 15 -10 9 0 25 -9 37 -20 12
-11 32 -20 45 -20 14 0 21 -4 18 -10 -3 -5 2 -10 12 -10 10 0 27 -7 37 -15 10
-8 23 -12 27 -9 5 3 9 0 9 -5 0 -6 9 -11 19 -11 10 0 22 -7 25 -16 3 -8 11
-12 16 -9 6 4 22 -1 37 -10 17 -12 23 -13 17 -4 -7 12 -5 12 9 1 9 -8 22 -10
28 -6 8 4 9 3 5 -4 -7 -12 5 -16 32 -13 6 1 12 -3 12 -9 0 -6 4 -9 9 -6 5 3
14 0 20 -8 6 -7 23 -14 36 -15 48 -3 55 -4 55 -13 0 -4 3 -7 8 -7 22 4 53 -2
48 -9 -3 -4 5 -8 17 -9 57 -1 68 -4 61 -14 -4 -7 1 -7 16 1 18 9 21 9 15 0 -6
-10 -1 -12 18 -8 16 3 31 0 38 -9 9 -10 15 -10 25 -2 11 9 14 9 14 0 0 -7 6
-11 13 -10 6 1 29 1 50 0 28 -1 36 -4 31 -13 -5 -9 -2 -9 9 1 9 7 17 9 17 5 0
-5 24 -10 53 -11 112 -3 143 -6 156 -17 11 -8 13 -8 8 0 -4 7 7 11 33 11 26 0
37 -4 33 -11 -3 -6 0 -5 8 2 17 16 32 16 23 0 -5 -9 -2 -9 9 1 14 11 20 11 32
1 12 -10 16 -9 21 4 3 9 11 13 16 10 13 -8 88 -11 88 -4 0 3 17 5 38 4 20 0
43 4 51 10 12 9 13 8 6 -4 -8 -13 -7 -13 8 -1 11 9 17 10 17 2 0 -6 5 -11 11
-11 5 0 7 5 4 10 -3 6 3 10 14 10 10 0 27 3 37 7 13 5 15 3 9 -8 -7 -11 -6
-12 7 -2 8 7 18 10 21 6 4 -3 7 -1 7 7 0 10 4 10 17 -1 14 -12 16 -12 11 2 -4
10 -1 16 8 16 8 0 14 -5 14 -10 0 -6 5 -6 13 0 6 6 22 9 34 8 13 -1 19 3 16 8
-4 6 0 8 10 4 10 -3 17 -3 17 2 0 4 10 7 23 6 12 -1 27 2 33 6 6 5 19 10 30
12 10 2 27 7 36 11 9 4 21 5 27 2 5 -3 11 -3 13 2 1 4 22 15 46 24 24 10 39
12 35 5 -3 -6 8 -1 25 12 22 15 32 18 32 9 0 -10 3 -9 10 2 5 8 10 11 10 7 0
-5 7 -1 16 7 8 9 20 14 25 11 5 -4 9 -1 9 5 0 6 5 8 10 5 6 -3 10 -1 10 4 0 6
3 10 8 10 4 -1 10 0 15 1 4 1 10 3 15 5 21 6 48 20 60 32 8 7 18 11 23 8 5 -4
9 -1 9 5 0 6 4 9 9 5 5 -3 12 -1 16 5 4 6 11 7 17 4 7 -4 8 -2 4 4 -6 11 6 16
27 13 4 0 7 6 7 14 0 8 6 12 13 9 8 -3 20 2 27 11 7 8 19 15 26 15 8 0 14 5
14 11 0 6 7 8 17 5 10 -4 14 -4 10 0 -6 6 44 44 58 44 3 0 16 11 29 25 13 13
26 22 29 18 4 -3 7 -1 7 5 0 7 5 12 11 12 7 0 18 8 26 18 9 11 12 12 8 2 -4
-8 2 -5 12 6 10 12 30 29 45 39 15 9 25 22 21 28 -3 5 -1 7 4 4 11 -7 70 42
66 55 -2 4 4 5 11 2 9 -3 17 3 21 15 6 19 17 26 38 22 5 -1 6 3 3 8 -3 5 7 21
24 34 16 14 30 31 30 37 0 6 3 9 8 7 4 -2 17 7 29 20 12 13 20 23 17 23 -2 0
10 15 28 32 18 18 36 32 40 30 4 -1 5 5 2 13 -4 8 1 17 10 21 9 3 13 10 10 15
-3 5 2 9 10 9 9 0 16 7 16 15 0 8 5 15 10 15 6 0 10 5 10 10 0 6 11 23 24 37
14 15 23 30 20 35 -3 4 2 8 10 8 8 0 18 5 22 12 5 7 2 8 -7 3 -8 -5 -4 3 9 17
12 13 22 29 22 36 0 6 8 17 19 24 18 13 21 18 21 36 0 5 9 19 20 32 11 13 20
32 20 42 0 12 4 16 11 12 7 -4 10 -1 7 7 -3 8 1 20 9 27 7 8 10 18 7 24 -4 7
-2 8 4 4 7 -4 14 3 18 18 3 14 12 31 20 37 12 10 12 14 2 20 -10 7 -10 9 0 9
6 0 12 7 12 15 0 8 5 15 11 15 6 0 9 6 6 14 -3 8 1 17 9 20 8 3 14 11 13 18
-1 7 3 26 9 41 7 16 12 33 12 38 0 6 4 8 9 5 5 -4 8 2 6 11 -1 10 3 27 10 38
6 11 11 28 9 38 -1 9 2 17 8 17 6 0 7 7 4 16 -4 9 -2 13 5 8 8 -4 9 1 4 15 -4
14 -2 21 6 21 7 0 9 3 6 7 -4 3 -2 12 4 20 9 10 8 13 -2 14 -8 0 -5 4 6 9 11
5 14 9 6 9 -11 1 -11 4 -1 16 7 8 10 24 7 35 -3 11 -1 18 4 14 5 -3 9 9 9 26
0 22 4 29 13 24 8 -5 8 -2 -2 9 -7 10 -9 17 -3 17 6 0 9 11 7 25 -1 14 1 25 5
25 4 0 6 14 5 30 -1 17 2 33 6 36 5 2 6 11 2 19 -3 9 1 15 8 15 11 0 11 3 -1
10 -12 8 -12 10 -1 10 11 0 11 3 1 15 -7 9 -8 15 -2 15 6 0 9 8 7 18 -1 9 2
23 8 30 6 8 6 12 -3 12 -10 0 -10 3 -1 14 9 11 9 15 -1 19 -8 4 -9 6 -1 6 6 1
9 10 5 23 -3 13 -1 19 5 15 7 -4 8 7 3 33 -4 22 -5 40 -1 40 3 0 6 29 6 65 0
36 -3 65 -6 65 -3 0 -4 11 -1 25 2 14 -2 33 -9 42 -12 15 -12 16 4 10 14 -5
16 -3 8 12 -7 12 -6 22 2 30 9 10 8 11 -8 5 -18 -7 -18 -6 -6 9 10 13 10 17 1
17 -9 0 -10 3 -1 13 6 8 8 17 4 21 -8 7 -14 51 -13 94 0 12 -4 22 -9 22 -5 0
-9 12 -8 28 1 60 -3 93 -11 88 -4 -2 -8 5 -9 17 -1 40 -10 92 -20 117 -6 14
-8 31 -5 39 3 9 1 12 -6 7 -6 -4 -11 1 -11 11 -1 39 -8 67 -18 70 -6 2 -9 13
-6 23 3 11 1 20 -5 20 -5 0 -13 7 -16 16 -3 9 -2 12 5 9 5 -4 1 10 -10 31 -11
20 -18 41 -15 46 3 4 1 8 -4 8 -11 0 -25 38 -22 59 1 7 -3 10 -9 6 -7 -3 -8 0
-5 9 3 9 1 16 -6 16 -6 0 -8 5 -5 10 3 6 1 10 -5 10 -7 0 -10 7 -6 15 3 8 1
15 -4 15 -6 0 -10 7 -10 15 0 8 -5 15 -11 15 -5 0 -8 4 -5 9 3 4 -3 19 -14 31
-23 26 -26 35 -8 24 6 -4 3 4 -8 18 -10 14 -22 24 -26 22 -4 -3 -5 5 -3 16 2
11 -2 23 -10 27 -7 5 -15 15 -17 23 -2 8 -12 23 -22 33 -10 9 -16 17 -11 17 4
0 2 6 -4 13 -6 8 -9 17 -6 20 3 4 2 5 -1 2 -8 -5 -34 20 -34 32 0 5 -9 19 -20
30 -11 12 -21 27 -22 34 -2 7 -18 28 -36 46 -17 19 -29 40 -25 45 3 7 1 8 -5
4 -7 -4 -12 -1 -12 9 0 9 -4 13 -10 10 -5 -3 -10 1 -10 9 0 9 -4 16 -10 16 -5
0 -10 7 -10 16 0 8 -3 13 -7 11 -10 -5 -43 30 -35 37 3 3 -3 6 -13 6 -10 0
-16 3 -12 6 7 8 -79 94 -94 94 -7 0 -10 3 -7 6 6 5 -38 54 -49 54 -3 0 -23 18
-45 40 -21 23 -38 35 -39 28 0 -7 -4 -4 -8 7 -5 11 -13 21 -20 21 -6 1 -16 2
-23 3 -6 0 -9 4 -5 7 7 8 -17 34 -32 34 -6 0 -11 4 -11 9 0 5 -10 13 -22 16
-11 4 -32 19 -46 34 -14 14 -22 20 -18 14 13 -23 -6 -13 -35 18 -16 17 -29 28
-29 24 0 -4 -7 -2 -15 5 -19 16 -111 66 -147 81 -16 6 -28 15 -28 21 0 5 -4 7
-9 4 -5 -3 -21 4 -37 16 -15 13 -24 17 -20 9 6 -9 1 -8 -16 3 -14 9 -28 13
-31 9 -4 -3 -7 -1 -7 5 0 7 -9 12 -20 12 -11 0 -20 4 -20 9 0 5 -7 12 -16 15
-10 4 -13 2 -8 -7 5 -8 2 -7 -9 2 -9 7 -17 10 -17 7 0 -4 -7 0 -16 8 -8 9 -20
13 -26 10 -6 -4 -14 -1 -18 5 -4 7 -17 13 -28 14 -12 1 -22 4 -22 7 0 3 -15 7
-32 8 -18 1 -37 8 -43 16 -5 7 -16 11 -23 8 -7 -2 -19 2 -27 8 -10 8 -15 9
-15 2 0 -7 -10 -6 -27 3 -15 8 -30 12 -35 9 -4 -3 -8 1 -8 8 0 9 -3 9 -10 -2
-5 -8 -10 -10 -10 -4 0 11 -6 12 -55 15 -14 1 -28 5 -30 9 -3 5 -14 6 -25 3
-11 -3 -20 -1 -20 5 0 6 -10 8 -22 4 -16 -4 -19 -2 -13 8 6 9 4 11 -6 5 -17
-11 -61 -16 -55 -6 3 4 -17 7 -44 6 -30 -1 -47 2 -43 8 3 6 1 7 -6 3 -6 -4
-18 -3 -26 4 -10 8 -15 8 -21 -1 -5 -8 -3 -9 6 -4 9 5 11 4 6 -4 -5 -8 -12 -9
-19 -3 -7 5 -32 9 -55 8 -24 -1 -46 2 -48 6 -3 5 -13 5 -22 0 -20 -9 -43 -9
-57 0 -6 4 -16 3 -23 -1z"/>
<path d="M5696 10603 c-2 -3 -2 -11 1 -19 4 -12 8 -11 20 3 14 17 14 17 9 1
-5 -17 4 -22 33 -19 7 2 10 -2 7 -8 -4 -6 9 -13 29 -17 19 -3 35 -11 35 -16 0
-6 7 -8 15 -5 8 4 17 2 20 -4 4 -5 11 -7 16 -4 5 4 9 2 9 -4 0 -5 9 -8 20 -6
12 2 20 -2 20 -10 0 -9 6 -12 15 -9 8 4 15 2 15 -4 0 -5 8 -9 18 -8 10 0 16
-5 14 -13 -3 -12 0 -12 12 -1 9 7 16 8 16 3 0 -5 10 -9 22 -10 11 -1 24 -7 28
-13 4 -7 10 -11 14 -11 20 3 26 0 20 -11 -4 -7 -4 -10 1 -6 4 4 17 3 28 -3 14
-8 18 -8 13 0 -5 7 -1 9 8 5 9 -3 16 -10 16 -15 0 -5 9 -9 20 -9 11 0 20 -4
20 -8 0 -4 10 -9 22 -9 13 -1 24 -7 26 -12 2 -5 9 -8 17 -5 7 3 16 0 20 -5 3
-6 11 -9 16 -6 5 4 9 1 9 -4 0 -6 11 -11 25 -11 14 0 25 -5 25 -11 0 -5 5 -7
10 -4 6 3 10 1 10 -6 0 -7 3 -9 7 -6 3 4 13 1 21 -6 13 -10 15 -9 8 3 -6 12
-4 11 6 -1 7 -9 19 -14 26 -12 6 3 12 0 12 -7 0 -6 5 -8 10 -5 6 3 10 2 10 -4
0 -6 7 -8 15 -5 8 4 15 1 15 -6 0 -6 4 -9 9 -5 5 3 12 1 16 -5 4 -6 10 -8 15
-5 5 3 11 1 15 -5 4 -6 11 -8 16 -5 5 4 9 1 9 -5 0 -6 5 -8 10 -5 6 3 10 2 10
-2 0 -5 10 -9 22 -10 11 -1 24 -6 27 -10 6 -8 89 -41 129 -50 12 -3 22 -10 22
-17 0 -6 5 -4 10 4 7 11 10 11 10 2 0 -7 5 -10 10 -7 6 3 10 0 10 -7 0 -8 9
-14 20 -14 10 0 17 2 15 5 -3 2 0 9 5 16 5 6 12 22 14 36 3 13 5 24 6 24 1 0
6 17 13 48 1 6 6 18 10 25 5 7 3 12 -5 12 -9 0 -9 3 2 10 8 5 16 14 16 20 1 5
2 11 4 13 6 8 7 36 0 32 -5 -3 -10 -1 -12 5 -2 6 -22 11 -45 13 -24 1 -43 5
-43 8 0 6 -21 9 -62 9 -16 0 -28 5 -28 10 0 6 -4 8 -10 5 -5 -3 -19 -1 -30 5
-15 8 -20 8 -20 -1 0 -8 -4 -8 -15 1 -8 7 -15 9 -15 5 0 -4 -6 -2 -14 4 -10 9
-16 9 -21 1 -5 -8 -11 -7 -22 2 -9 7 -24 12 -34 10 -9 -2 -20 2 -24 8 -5 8
-11 8 -21 -1 -8 -6 -14 -7 -14 -2 0 10 -13 13 -62 14 -17 1 -25 6 -21 12 3 6
1 7 -6 3 -6 -4 -19 -2 -28 6 -12 9 -15 9 -9 1 10 -18 -9 -16 -24 2 -10 12 -15
13 -28 3 -11 -9 -16 -10 -19 -2 -2 6 -17 10 -33 8 -17 -2 -29 0 -29 4 3 19 -2
26 -10 13 -7 -12 -13 -12 -24 -3 -7 7 -16 9 -20 6 -3 -3 -15 0 -27 6 -12 7
-20 8 -17 3 4 -5 0 -10 -8 -10 -8 0 -12 4 -10 8 3 4 -2 9 -10 13 -8 3 -17 1
-21 -5 -4 -6 -11 -6 -20 2 -8 6 -23 9 -34 6 -11 -3 -20 0 -20 6 0 6 -3 7 -7 4
-3 -4 -12 -2 -20 4 -10 9 -13 8 -13 -2 0 -9 -3 -10 -8 -4 -8 11 -17 14 -61 17
-17 1 -31 5 -31 9 0 3 -13 5 -30 4 -16 -1 -30 3 -30 9 0 6 -4 5 -9 -2 -6 -11
-11 -10 -25 3 -12 12 -16 13 -16 3 0 -10 -2 -10 -9 1 -5 8 -18 12 -29 8 -12
-2 -23 0 -25 6 -3 11 -32 18 -41 10z"/>
<path d="M13210 10340 c0 -7 -6 -10 -12 -7 -7 2 -21 0 -30 -4 -10 -6 -19 -5
-23 1 -3 5 -12 7 -20 4 -8 -4 -13 -9 -11 -13 3 -4 -4 -8 -15 -8 -11 -1 -17 2
-14 7 3 6 -1 7 -9 4 -9 -3 -14 -9 -12 -13 5 -8 -47 -6 -62 3 -6 3 -14 1 -18
-5 -5 -8 -3 -9 6 -4 9 5 11 4 6 -4 -6 -9 -11 -9 -21 -1 -8 7 -16 7 -19 2 -3
-6 -21 -9 -40 -8 -19 1 -32 -3 -29 -8 4 -5 -5 -6 -20 -2 -14 3 -28 2 -31 -2
-3 -5 -21 -8 -41 -7 -19 0 -35 -2 -35 -5 0 -4 -10 -6 -22 -5 -13 1 -29 -2 -35
-8 -9 -6 -13 -5 -13 4 0 11 -2 11 -10 -1 -5 -8 -10 -11 -10 -6 0 5 -8 2 -17
-5 -11 -10 -14 -10 -9 -1 4 6 2 12 -3 12 -6 0 -11 -5 -11 -10 0 -6 -11 -8 -25
-6 -15 3 -25 0 -25 -7 0 -7 -4 -6 -10 3 -7 10 -12 12 -17 4 -5 -6 -18 -10 -30
-9 -13 1 -23 -2 -23 -7 0 -5 -12 -7 -27 -5 -16 2 -34 0 -40 -6 -9 -6 -13 -6
-13 3 0 9 -4 9 -17 -1 -14 -12 -16 -12 -9 1 4 8 0 6 -8 -4 -10 -12 -16 -15
-16 -7 0 10 -7 9 -26 -4 -20 -13 -28 -14 -34 -5 -5 8 -13 9 -26 3 -11 -5 -35
-10 -54 -12 -19 -1 -39 -6 -44 -11 -5 -5 -19 -5 -33 1 -18 6 -22 6 -17 -3 5
-7 0 -9 -14 -6 -12 3 -23 1 -26 -6 -3 -7 -5 -7 -5 2 -1 6 -6 12 -12 12 -5 0
-7 -5 -4 -10 4 -7 -3 -9 -18 -6 -13 2 -28 1 -34 -2 -13 -9 -24 -52 -13 -52 5
0 7 -9 5 -20 -2 -11 1 -20 7 -20 6 0 8 -9 5 -20 -3 -11 -1 -20 3 -20 5 0 7 -9
5 -20 -2 -11 0 -20 6 -20 5 0 8 -3 8 -7 -4 -24 3 -52 17 -69 8 -10 12 -13 8
-5 -5 11 -3 13 9 8 10 -4 17 -1 17 6 0 8 4 6 10 -3 6 -10 10 -11 10 -2 0 6 7
12 15 12 8 0 15 6 15 13 0 8 4 7 10 -3 6 -9 10 -10 10 -3 0 7 17 15 38 19 20
4 42 14 49 23 10 13 12 13 13 2 0 -12 3 -12 12 -3 7 7 20 12 30 12 10 0 18 5
18 11 0 5 4 8 8 5 5 -3 21 2 36 9 16 8 32 12 37 9 5 -3 9 0 9 7 0 7 3 10 6 7
3 -4 20 0 39 7 18 8 36 11 40 7 5 -4 5 -2 2 4 -4 7 0 14 7 17 8 3 17 1 20 -6
3 -9 5 -9 5 1 1 6 10 12 22 12 11 0 18 4 15 8 -3 5 5 8 17 7 12 -1 24 2 27 6
5 8 50 20 82 22 9 1 15 4 12 8 -5 9 25 21 37 13 5 -3 9 0 9 5 0 6 9 11 20 11
11 0 20 5 20 11 0 8 4 8 14 0 10 -9 16 -8 26 4 7 8 21 15 31 15 11 0 19 4 19
9 0 5 11 8 25 6 14 -1 25 1 25 4 0 3 9 12 21 19 14 9 19 9 14 2 -4 -7 7 -5 24
4 17 9 31 14 31 10 0 -4 6 -1 13 5 8 6 17 8 20 4 4 -3 7 -1 7 6 0 8 7 11 15 7
8 -3 15 -1 15 5 0 6 4 8 9 4 5 -3 13 0 16 6 4 5 13 8 21 5 8 -3 14 -1 14 5 0
6 5 7 10 4 6 -3 10 -2 10 2 0 5 11 10 23 11 13 1 37 8 52 16 16 8 33 12 39 9
6 -3 8 -2 3 2 -11 13 -47 16 -47 5 0 -7 -7 -7 -20 0 -14 8 -20 8 -20 0z"/>
<path d="M6686 9681 c-3 -5 -15 -11 -26 -14 -11 -3 -18 -1 -14 4 3 5 0 9 -5 9
-6 0 -11 -4 -11 -10 0 -5 -7 -7 -16 -3 -9 3 -20 0 -25 -8 -6 -10 -9 -10 -9 -2
0 9 -7 10 -25 3 -17 -6 -25 -6 -25 1 0 6 -5 7 -12 3 -21 -13 -68 -15 -68 -2 0
7 -7 3 -16 -8 -8 -10 -13 -12 -9 -4 4 8 -1 6 -9 -4 -9 -11 -16 -16 -16 -10 0
5 -18 9 -40 9 -22 0 -40 -2 -40 -5 0 -3 -9 -6 -20 -6 -11 0 -20 5 -20 11 0 5
-4 4 -9 -4 -5 -7 -15 -11 -22 -9 -8 3 -20 -2 -27 -9 -9 -8 -19 -10 -26 -5 -9
7 -65 8 -73 2 -9 -7 -29 -4 -35 5 -5 6 -8 5 -8 -4 0 -11 -3 -11 -17 0 -14 12
-16 12 -8 0 6 -11 3 -13 -13 -9 -13 4 -22 1 -22 -5 0 -7 -5 -5 -10 3 -5 8 -10
10 -10 4 0 -6 -16 -10 -36 -9 -19 0 -38 -3 -41 -8 -2 -4 -11 -3 -18 3 -7 6
-16 7 -19 2 -3 -5 -23 -8 -46 -8 -22 1 -40 -2 -40 -7 0 -4 -10 -3 -21 4 -12 6
-19 7 -15 1 3 -5 -1 -12 -9 -16 -8 -3 -17 0 -21 6 -4 7 -9 6 -15 -3 -5 -8 -9
-9 -9 -4 0 6 -9 11 -20 11 -11 0 -20 -4 -20 -8 0 -4 -13 -6 -30 -4 -16 2 -30
1 -30 -3 0 -3 -15 -5 -32 -5 -18 1 -41 -3 -50 -8 -12 -5 -18 -5 -18 1 0 7 -8
7 -24 1 -13 -5 -32 -7 -42 -6 -11 2 -22 -2 -26 -8 -5 -8 -8 -7 -8 2 0 9 -5 10
-19 2 -14 -7 -21 -6 -24 3 -4 9 -6 9 -6 -1 -1 -7 -6 -10 -12 -6 -6 3 -15 0
-20 -7 -7 -12 -9 -12 -9 0 0 9 -4 10 -12 5 -7 -5 -26 -9 -43 -9 -16 0 -33 -4
-37 -10 -4 -5 -8 -1 -8 10 0 14 -3 16 -8 7 -6 -8 -35 -14 -84 -15 -42 -1 -74
-6 -70 -11 3 -5 -7 -6 -22 -2 -14 3 -26 3 -26 -1 0 -5 -21 -8 -47 -7 -27 1
-54 -4 -62 -10 -11 -8 -13 -8 -7 2 4 7 1 12 -9 12 -10 0 -13 -5 -9 -12 6 -10
5 -10 -8 -1 -8 7 -17 10 -20 8 -8 -8 -78 -17 -116 -16 -19 1 -31 -2 -28 -8 8
-12 -27 -9 -36 4 -5 6 -11 5 -17 -4 -8 -13 -12 -13 -27 0 -10 8 -15 9 -11 3 4
-7 0 -14 -8 -18 -8 -3 -15 -1 -15 5 0 6 -4 8 -9 5 -4 -3 -31 -6 -60 -7 -31 -1
-51 -7 -51 -14 0 -7 14 -11 36 -10 22 0 39 -5 44 -15 5 -8 10 -10 10 -4 0 12
48 16 65 6 6 -4 31 -7 57 -7 26 0 50 -4 54 -8 4 -4 13 -2 21 4 10 9 13 8 13 0
0 -7 4 -10 9 -6 5 3 12 1 15 -4 3 -5 21 -6 40 -1 27 6 33 5 29 -6 -4 -10 0
-12 11 -8 9 3 16 11 16 18 0 6 4 6 9 -3 5 -7 15 -11 22 -9 8 3 24 1 37 -3 15
-6 21 -5 17 1 -8 13 28 0 37 -14 5 -7 8 -7 8 2 0 10 5 10 21 1 15 -8 19 -8 15
0 -4 6 -3 11 3 11 5 0 12 -4 16 -10 3 -5 13 -6 22 -3 11 5 14 3 8 -6 -6 -10
-3 -11 13 -2 15 8 23 8 28 0 4 -8 9 -7 15 2 5 8 9 9 9 3 0 -13 38 -12 59 0 9
6 12 5 8 -1 -4 -6 0 -13 8 -17 8 -3 15 0 15 7 0 7 3 8 8 2 4 -5 27 -10 50 -10
24 0 46 -4 49 -8 3 -4 11 -3 19 4 8 6 14 7 14 2 0 -5 10 -9 23 -8 12 1 25 -3
29 -9 5 -7 8 -6 8 3 0 11 5 10 20 -4 20 -18 21 -18 14 1 -5 15 -4 17 6 7 7 -6
19 -9 28 -6 11 5 13 3 7 -8 -8 -12 -6 -12 8 0 14 11 17 11 17 0 0 -12 2 -12 9
0 5 7 11 9 14 4 3 -5 26 -9 51 -8 24 0 42 -3 40 -7 -3 -4 0 -8 5 -8 6 0 11 5
11 11 0 8 4 8 13 0 10 -7 17 -7 24 0 8 8 13 7 18 -2 6 -8 4 -10 -6 -4 -8 5
-11 5 -7 0 6 -7 108 -15 201 -16 11 0 15 -5 10 -12 -4 -7 0 -6 10 2 13 10 17
10 17 1 0 -9 3 -10 13 -1 8 6 17 7 21 3 7 -7 71 -13 129 -12 19 0 26 -3 22
-11 -6 -8 -2 -8 14 0 16 9 21 9 21 0 0 -8 4 -8 15 1 9 8 15 8 15 2 0 -6 27
-11 63 -12 90 -2 91 -2 99 -14 5 -7 8 -6 8 3 0 11 3 11 17 0 15 -12 16 -12 8
1 -7 12 -6 13 6 3 8 -7 28 -11 44 -9 17 1 36 -2 43 -7 8 -6 12 -6 12 2 0 9 5
9 20 1 25 -13 81 -20 74 -9 -3 5 5 5 18 0 20 -7 57 -11 128 -13 8 0 20 -5 27
-10 7 -5 14 -5 18 2 3 6 11 8 16 5 9 -6 13 15 10 44 -2 8 3 10 11 6 7 -3 4 1
-6 9 -11 9 -15 16 -10 16 6 0 9 14 6 31 -4 25 -2 30 9 25 8 -4 5 0 -5 8 -11 9
-15 16 -10 16 6 0 9 14 6 31 -4 25 -2 30 9 25 8 -4 6 -1 -3 7 -23 18 -23 31
-2 23 14 -5 15 -4 4 9 -7 9 -10 18 -7 22 4 3 2 12 -4 19 -6 7 -6 14 0 18 5 3
7 16 3 28 -4 16 -2 19 9 13 11 -7 12 -6 3 6 -7 8 -13 33 -16 56 -3 36 -1 40
12 30 13 -10 13 -10 2 5 -10 12 -25 16 -55 13 -23 -2 -42 -4 -42 -5 0 -1 -12
-3 -28 -5 -15 -2 -25 0 -22 6 4 5 4 9 1 9 -3 0 -7 -4 -10 -9z"/>
<path d="M12095 9680 c-7 -12 -8 -188 0 -199 3 -6 2 -11 -4 -11 -6 0 -6 -11
-1 -30 5 -16 5 -30 2 -30 -4 0 -5 -31 -2 -70 3 -38 2 -70 -3 -70 -4 0 -5 -6 0
-12 4 -7 6 -21 5 -30 -3 -14 3 -17 22 -16 14 1 26 6 26 11 0 4 9 3 20 -3 11
-6 20 -7 20 -2 0 4 9 8 20 9 11 1 20 -4 20 -10 0 -9 2 -9 8 0 5 8 36 14 76 16
44 3 71 9 77 18 7 11 9 11 9 -4 0 -14 4 -16 18 -8 10 5 36 10 58 10 72 2 99 6
106 16 5 6 8 4 8 -5 0 -13 1 -13 10 0 9 13 11 13 20 0 8 -12 10 -12 10 -1 0 8
7 11 20 8 10 -3 21 0 24 7 3 8 5 8 5 -1 1 -8 10 -9 30 -3 16 4 32 5 36 2 3 -4
10 0 15 8 8 12 10 12 10 1 0 -11 3 -11 15 -1 12 10 15 10 15 -1 0 -12 2 -12 9
0 6 9 10 10 16 2 5 -9 10 -9 21 0 8 6 14 8 14 3 0 -5 5 -2 10 6 6 9 10 10 10
3 0 -8 9 -9 28 -4 15 4 42 7 60 6 18 -1 35 2 38 7 3 5 11 4 19 -2 10 -8 15 -8
20 1 6 8 10 7 16 -2 7 -11 9 -9 9 6 0 17 2 17 10 5 9 -13 10 -13 10 0 0 13 1
13 10 0 5 -8 10 -10 10 -5 0 6 30 10 69 10 38 0 67 3 64 8 -2 4 3 7 12 7 10 0
13 -5 9 -12 -6 -10 -5 -10 8 -1 8 7 18 10 21 6 4 -3 7 0 7 8 0 11 2 11 10 -1
9 -13 10 -13 10 0 0 13 1 13 10 0 5 -8 10 -10 10 -4 0 6 12 10 28 10 15 -1 35
2 46 7 14 7 16 6 11 -4 -5 -8 -4 -10 3 -5 22 13 76 15 84 3 5 -8 8 -7 8 4 0
12 8 15 27 13 15 -1 36 2 46 8 14 7 17 7 13 -1 -8 -12 6 -15 18 -4 10 10 56
12 56 2 0 -4 12 -1 27 6 21 11 29 12 35 2 6 -9 8 -9 8 0 0 7 12 10 30 8 17 -2
30 1 30 7 0 7 4 7 13 -1 10 -8 17 -7 27 2 10 10 11 9 5 -1 -6 -11 -3 -12 12
-3 14 7 24 7 33 -2 10 -10 12 -8 7 6 -4 9 -2 17 3 17 6 0 10 -6 10 -12 0 -9 4
-8 10 2 9 13 10 13 10 0 0 -9 3 -11 8 -5 4 6 31 11 59 10 29 0 53 2 53 6 0 3
25 5 57 5 38 -1 58 3 61 12 3 10 8 8 19 -5 8 -10 11 -12 7 -4 -5 11 -3 13 9 8
10 -4 17 -1 17 6 0 8 3 8 9 -2 6 -9 10 -10 16 -2 5 9 10 9 20 1 9 -7 15 -8 19
-1 4 6 13 8 20 5 8 -3 17 -1 21 5 4 8 12 8 26 1 15 -9 19 -7 20 7 0 16 1 16 9
-2 5 -11 9 -14 9 -6 1 11 4 11 18 0 14 -12 16 -12 8 0 -6 11 -3 13 13 9 12 -4
22 -1 22 4 0 6 8 4 18 -3 15 -12 16 -12 5 2 -7 9 -10 20 -6 25 4 5 1 3 -7 -3
-15 -14 -34 -18 -27 -5 3 4 -33 7 -79 7 -46 0 -84 3 -84 6 0 4 -18 5 -40 3
-22 -2 -40 0 -40 5 0 14 -29 21 -36 9 -5 -7 -2 -8 6 -3 9 5 11 4 6 -4 -6 -9
-11 -9 -22 0 -7 6 -31 9 -53 7 -22 -2 -37 0 -35 4 2 3 0 9 -6 13 -5 3 -10 2
-10 -2 0 -5 -9 -9 -20 -10 -13 -1 -18 2 -13 10 4 7 0 6 -10 -2 -10 -8 -17 -9
-17 -3 0 6 -9 9 -20 7 -11 -2 -22 1 -25 6 -4 5 -13 6 -22 0 -18 -9 -51 -4 -72
13 -11 8 -13 8 -7 -1 4 -8 2 -13 -8 -13 -8 0 -17 4 -20 8 -2 4 -22 7 -43 6
-21 0 -46 3 -55 8 -11 5 -18 5 -18 -1 0 -11 -39 -3 -59 13 -11 8 -13 8 -8 0 4
-8 -2 -11 -18 -10 -14 0 -25 6 -25 11 0 6 -5 3 -10 -5 -9 -13 -10 -13 -10 0 0
13 -1 13 -10 0 -7 -11 -10 -12 -10 -2 0 8 -6 12 -12 9 -7 -2 -23 0 -35 4 -15
5 -23 5 -23 -2 0 -6 -6 -7 -12 -2 -7 4 -35 8 -63 8 -36 1 -49 5 -47 15 2 10 0
11 -11 2 -7 -6 -24 -9 -38 -6 -13 3 -52 6 -86 7 -35 1 -63 4 -63 8 0 3 -15 6
-32 7 -84 4 -114 8 -127 16 -10 6 -12 5 -7 -2 4 -7 3 -12 -3 -12 -5 0 -13 5
-16 10 -5 8 -11 7 -21 -1 -11 -9 -14 -9 -14 1 0 10 -3 10 -15 0 -12 -10 -15
-10 -15 0 0 7 -6 10 -14 7 -8 -3 -17 -1 -20 6 -3 9 -5 8 -5 -1 -1 -9 -7 -10
-18 -4 -10 4 -29 8 -43 7 -14 -1 -31 3 -37 8 -9 6 -13 5 -13 -2 0 -8 -6 -9
-18 -2 -11 6 -24 6 -34 0 -12 -7 -20 -5 -27 8 -6 11 -11 13 -11 5 0 -7 -5 -10
-11 -6 -6 4 -34 8 -63 10 -69 5 -101 10 -114 18 -6 3 -14 1 -18 -5 -5 -8 -3
-9 6 -4 9 5 11 4 6 -4 -6 -8 -11 -9 -20 -1 -7 5 -24 10 -37 10 -33 -1 -62 5
-77 14 -7 4 -12 2 -12 -6 0 -9 -3 -10 -8 -2 -4 6 -24 10 -45 10 -20 -1 -43 1
-49 5 -7 4 -19 2 -27 -4 -10 -8 -13 -8 -8 -1 4 7 0 15 -9 18 -8 3 -12 2 -9 -4
7 -11 -8 -14 -19 -3 -9 9 -46 11 -51 3z"/>
<path d="M4445 9461 c-3 -5 -2 -12 3 -15 5 -3 9 1 9 9 0 17 -3 19 -12 6z"/>
<path d="M6820 8991 c0 -6 -7 -8 -15 -5 -8 4 -15 1 -15 -5 0 -6 -9 -11 -20
-11 -11 0 -20 -3 -20 -7 0 -5 -12 -9 -26 -9 -14 -1 -32 -10 -40 -20 -9 -11
-13 -13 -9 -6 7 13 -7 17 -19 5 -4 -5 -11 -8 -14 -9 -4 0 -15 -4 -24 -8 -9 -4
-22 -9 -30 -10 -7 -1 -23 -8 -35 -14 -13 -7 -23 -10 -23 -6 0 3 -7 1 -15 -6
-8 -6 -18 -9 -24 -6 -5 4 -17 -2 -27 -11 -10 -10 -19 -17 -21 -15 -8 6 -24 1
-19 -7 3 -4 -6 -6 -19 -3 -15 2 -25 0 -25 -7 0 -6 -5 -11 -11 -11 -5 0 -7 6
-4 13 4 6 -1 3 -10 -8 -9 -11 -17 -18 -18 -16 -1 3 -13 1 -27 -3 -14 -5 -31
-7 -37 -7 -7 1 -13 -3 -13 -9 0 -6 -3 -9 -8 -7 -4 3 -24 -3 -45 -13 -20 -10
-35 -14 -31 -9 3 5 -11 0 -31 -11 -21 -12 -42 -19 -49 -17 -6 2 -17 -2 -24 -9
-7 -7 -19 -11 -27 -8 -8 4 -15 1 -15 -6 0 -6 -4 -9 -9 -5 -5 3 -12 1 -16 -5
-3 -5 -17 -10 -31 -10 -14 0 -22 -4 -19 -10 3 -6 -1 -7 -9 -4 -9 3 -16 1 -16
-4 0 -6 -9 -9 -20 -7 -11 2 -20 -1 -20 -7 0 -5 -7 -8 -15 -4 -8 3 -15 1 -15
-3 0 -5 -7 -12 -16 -15 -10 -4 -13 -2 -8 6 4 7 -8 1 -26 -12 -18 -13 -31 -19
-27 -14 3 6 0 11 -8 11 -8 0 -13 -5 -12 -11 1 -6 -8 -10 -20 -9 -13 2 -23 -2
-23 -8 0 -8 -5 -7 -15 1 -13 11 -14 10 -10 -1 3 -9 -1 -15 -12 -17 -32 -3 -48
-7 -61 -15 -14 -9 -7 -27 11 -27 7 0 6 4 -3 10 -8 5 -13 10 -10 11 3 0 13 2
23 4 9 2 17 -1 17 -6 0 -6 4 -8 9 -5 11 7 78 19 114 20 15 1 27 4 27 8 0 4 9
5 20 3 11 -2 20 1 20 6 0 6 8 5 21 -2 15 -8 19 -8 15 0 -10 15 7 14 23 -1 11
-10 13 -10 7 0 -7 11 11 16 67 15 9 0 17 3 17 6 0 4 18 6 39 6 22 0 38 2 36 5
-2 3 19 7 47 8 29 1 56 6 62 12 13 13 29 13 20 -1 -4 -8 -1 -8 12 -1 11 5 27
8 37 7 9 -2 17 1 17 6 0 4 7 6 15 3 8 -4 23 0 32 7 14 12 16 12 8 -1 -8 -13
-7 -13 8 -1 14 11 17 11 17 0 0 -9 3 -10 8 -4 4 6 23 12 42 14 19 1 41 8 49
14 11 9 13 9 8 1 -4 -8 2 -11 17 -10 13 0 22 5 18 10 -3 5 5 7 16 4 12 -4 25
-2 28 3 3 5 14 4 26 -2 12 -6 18 -7 14 -1 -3 5 2 13 11 16 9 4 20 2 23 -5 6
-8 9 -8 14 0 4 6 12 9 17 6 5 -4 9 -1 9 6 0 8 3 9 13 0 8 -6 17 -8 21 -4 3 4
21 8 39 9 17 1 34 3 37 4 3 1 8 2 13 1 4 0 7 5 7 12 0 8 4 7 10 -3 5 -8 10
-10 10 -5 0 6 19 10 42 9 42 -1 81 21 62 34 -5 4 -11 21 -13 37 -1 17 -7 35
-12 41 -5 7 -9 16 -8 20 5 27 -2 54 -12 48 -7 -4 -7 1 1 16 10 18 9 21 -1 15
-9 -6 -11 -2 -6 14 3 15 -1 24 -14 31 -13 7 -19 7 -19 1z"/>
<path d="M12007 8774 c3 -8 0 -14 -6 -14 -6 0 -8 -6 -5 -14 3 -8 1 -17 -5 -20
-5 -4 -8 -18 -5 -31 3 -17 -1 -27 -11 -31 -11 -5 -13 -10 -5 -19 7 -9 6 -16
-5 -25 -12 -10 -13 -16 -3 -27 9 -11 8 -13 -2 -11 -8 2 -14 -5 -15 -14 0 -10
4 -18 8 -17 5 0 15 -8 23 -18 7 -10 14 -13 14 -6 0 8 13 7 47 -3 26 -8 53 -12
61 -9 7 2 15 -2 19 -11 5 -13 7 -13 14 -2 6 8 12 9 17 3 4 -6 14 -10 22 -10 8
0 18 -4 22 -10 5 -6 8 -5 8 3 0 9 5 10 19 3 10 -6 21 -7 25 -4 3 3 6 0 6 -8 0
-11 2 -11 10 1 5 8 10 10 10 5 0 -9 26 -15 78 -18 6 0 12 -5 12 -11 0 -6 5 -4
10 4 7 12 10 12 10 1 0 -7 6 -11 15 -7 8 3 15 0 15 -7 0 -8 4 -6 10 3 6 9 10
10 10 3 0 -7 10 -10 26 -7 18 3 23 1 18 -7 -5 -9 -2 -10 11 -6 9 4 24 2 31 -4
11 -9 14 -8 14 1 0 9 3 10 13 1 8 -6 17 -8 20 -4 4 3 7 1 7 -7 0 -10 3 -10 14
-1 10 8 16 9 21 1 3 -6 11 -8 16 -5 5 4 9 2 9 -2 0 -5 22 -8 49 -8 27 0 47 -3
45 -7 -5 -8 8 -10 59 -11 15 0 27 -4 27 -9 0 -4 10 -8 23 -8 12 -1 34 -1 50
-1 15 -1 27 -5 27 -10 0 -11 23 -7 32 6 5 6 8 3 8 -6 0 -10 8 -15 23 -14 12 1
25 -3 29 -9 5 -7 8 -7 8 2 0 8 5 10 13 5 12 -7 24 -11 62 -17 11 -2 35 -6 53
-10 57 -13 82 -14 89 -2 3 6 2 8 -2 3 -5 -4 -19 0 -33 9 -18 12 -23 12 -17 3
3 -8 -1 -5 -9 5 -9 11 -16 16 -16 12 0 -5 -8 -2 -17 5 -11 9 -14 10 -9 2 5 -9
2 -11 -8 -7 -9 3 -13 11 -9 17 4 6 -2 8 -16 4 -12 -3 -27 0 -34 7 -14 14 -19
16 -49 16 -19 0 -20 2 -8 11 12 9 11 10 -7 6 -13 -3 -23 -2 -23 2 0 10 -71 32
-82 25 -5 -3 -7 0 -6 7 2 7 -7 13 -22 13 -14 0 -31 6 -38 13 -8 7 -18 11 -23
8 -5 -4 -9 -1 -9 4 0 6 -9 11 -19 11 -11 0 -26 6 -33 13 -7 6 -24 13 -38 15
-13 1 -28 9 -33 17 -4 8 -14 12 -23 8 -8 -3 -21 2 -28 12 -10 14 -15 15 -21 5
-6 -9 -9 -9 -15 0 -4 6 -13 12 -21 14 -8 1 -31 10 -53 19 -21 9 -43 17 -48 17
-5 0 -7 4 -4 9 3 4 -6 7 -19 5 -14 -1 -25 2 -25 7 0 6 -4 7 -10 4 -5 -3 -10
-1 -10 5 0 7 -7 10 -15 6 -8 -3 -15 -1 -15 5 0 6 -4 7 -10 4 -5 -3 -10 -1 -10
4 0 6 -11 11 -25 11 -14 0 -25 5 -25 10 0 6 -9 10 -19 10 -11 0 -23 5 -26 11
-4 6 -13 8 -21 5 -8 -3 -14 -1 -14 5 0 6 -4 7 -10 4 -5 -3 -10 0 -10 7 0 9 -3
9 -10 -2 -5 -8 -10 -10 -10 -5 0 6 -9 16 -21 23 -12 8 -18 9 -15 3 4 -6 -6 -4
-21 4 -15 8 -34 15 -40 15 -7 0 -13 5 -13 10 0 6 -3 9 -7 9 -5 -1 -10 0 -13 1
-23 9 -38 6 -33 -6z"/>
<path d="M7055 8338 c-4 -10 -11 -15 -16 -12 -5 3 -12 -1 -15 -10 -3 -9 -12
-12 -22 -9 -9 4 -14 3 -10 -2 4 -4 -20 -26 -54 -49 -34 -22 -73 -51 -86 -63
-14 -13 -28 -23 -32 -23 -4 0 -17 -9 -30 -20 -12 -11 -26 -17 -31 -15 -4 3
-10 -4 -14 -14 -4 -13 -11 -18 -22 -14 -10 4 -14 2 -10 -4 4 -6 -3 -13 -14
-16 -12 -3 -18 -10 -14 -17 3 -6 3 -10 -2 -9 -20 3 -44 -2 -40 -8 5 -8 -17
-32 -30 -35 -30 -5 -42 -11 -37 -19 5 -8 -10 -13 -29 -10 -5 1 -6 -2 -3 -7 3
-5 -10 -18 -29 -28 -19 -10 -35 -25 -35 -34 0 -13 -1 -13 -10 0 -7 10 -10 11
-10 2 0 -7 -16 -20 -35 -29 -19 -9 -32 -20 -29 -25 3 -4 -2 -8 -10 -8 -9 0
-16 -5 -16 -11 0 -5 -4 -8 -9 -5 -5 3 -12 -1 -15 -10 -3 -9 -11 -12 -18 -8 -7
5 -9 2 -5 -9 4 -11 1 -15 -13 -12 -12 2 -21 -3 -25 -16 -4 -11 -11 -17 -16
-14 -5 4 -9 1 -9 -5 0 -6 -4 -9 -9 -5 -5 3 -16 -4 -24 -15 -7 -11 -17 -17 -20
-13 -4 3 -7 1 -7 -5 0 -7 -5 -12 -11 -12 -7 0 -20 -9 -30 -21 -9 -11 -20 -20
-23 -20 -20 3 -27 0 -22 -8 3 -5 -7 -14 -23 -21 -16 -6 -32 -18 -35 -27 -3 -8
-10 -11 -16 -8 -5 3 -10 1 -10 -5 0 -6 -11 -15 -25 -20 -14 -5 -25 -14 -25
-20 0 -5 -4 -9 -9 -7 -5 1 -17 -7 -26 -18 -9 -11 -14 -13 -10 -5 4 10 2 9 -8
-2 -8 -10 -17 -18 -21 -18 -7 0 -23 -12 -57 -42 -10 -10 -19 -16 -19 -13 0 6
-13 -4 -45 -33 -8 -7 -15 -11 -15 -7 0 3 -6 0 -14 -7 -8 -7 -11 -17 -8 -22 3
-5 0 -6 -6 -2 -6 3 -17 -1 -25 -9 -9 -8 -20 -15 -26 -15 -6 0 -11 -4 -11 -10
0 -5 -5 -10 -11 -10 -7 0 -20 -10 -30 -22 -11 -11 -19 -18 -19 -14 0 4 -7 1
-15 -6 -33 -30 -45 -38 -55 -38 -5 0 -10 -4 -10 -10 0 -5 -6 -10 -14 -10 -8 0
-16 -7 -20 -15 -3 -8 -12 -15 -20 -15 -7 0 -17 -7 -20 -16 -4 -9 -9 -14 -12
-11 -4 3 -18 -5 -32 -18 -14 -13 -29 -22 -34 -19 -4 3 -8 -2 -8 -10 0 -8 -5
-18 -12 -22 -7 -4 -8 -3 -4 4 4 7 2 12 -3 12 -6 0 -11 -7 -11 -15 0 -8 -7 -15
-15 -15 -8 0 -15 -4 -15 -9 0 -5 -9 -11 -21 -14 -12 -3 -18 -10 -15 -15 3 -5
-2 -9 -12 -8 -9 0 -16 -5 -14 -12 1 -8 -2 -11 -8 -7 -6 4 -18 -1 -25 -11 -8
-11 -15 -15 -15 -11 0 5 -7 2 -15 -5 -35 -32 -45 -38 -60 -38 -3 0 0 -6 7 -14
11 -12 17 -11 38 4 14 9 42 23 63 31 20 7 37 17 37 21 0 4 11 8 25 8 14 0 25
5 25 10 0 6 6 10 14 10 20 0 67 26 59 33 -3 4 4 5 16 2 11 -2 21 1 21 6 0 6 5
7 10 4 6 -3 13 0 16 9 3 8 14 13 25 11 10 -2 19 0 19 6 0 5 6 9 14 9 7 0 19 7
26 15 7 8 18 14 24 14 16 -3 68 20 90 39 11 9 16 11 12 5 -5 -9 -2 -11 8 -7 9
3 16 10 16 16 0 5 5 6 10 3 6 -3 10 -1 10 5 0 6 4 9 9 5 5 -3 15 1 23 8 7 8
21 13 30 11 9 -1 19 5 22 13 4 9 13 13 21 9 9 -3 18 1 22 10 3 8 13 14 22 12
9 -1 27 5 41 15 13 9 30 17 37 17 7 0 13 5 13 11 0 5 5 7 10 4 6 -3 17 1 26 9
9 9 20 14 25 10 5 -3 12 1 15 10 3 8 12 12 19 10 7 -3 16 -1 20 5 3 6 15 11
26 11 10 0 19 5 19 10 0 6 6 10 13 10 7 0 30 9 51 20 22 10 43 17 49 13 6 -3
7 -1 3 5 -4 7 -1 12 8 12 9 0 16 5 16 12 0 6 3 8 6 5 4 -3 15 -2 25 3 12 7 19
6 22 -3 3 -7 6 -5 6 6 1 15 12 22 34 18 4 -1 10 6 13 14 3 8 10 12 15 10 5 -3
20 1 33 10 14 9 31 13 37 9 8 -4 9 -3 5 5 -5 7 3 13 23 17 17 4 31 11 31 16 0
6 6 8 14 5 8 -3 16 -1 18 4 2 6 12 12 23 14 11 2 22 4 25 5 3 1 8 2 13 1 4 0
7 3 7 8 0 5 27 20 59 32 33 13 57 27 55 31 -3 4 2 5 10 2 9 -3 16 -1 16 6 0 6
4 9 9 5 5 -3 12 -1 16 5 4 6 11 8 16 5 5 -4 12 0 15 8 5 14 12 16 58 20 16 1
22 7 18 16 -3 8 -1 12 4 8 6 -3 34 7 63 23 30 17 57 27 62 24 5 -3 9 0 9 5 0
6 3 10 8 9 4 -1 21 6 39 15 18 9 39 17 48 17 8 0 15 3 15 8 0 4 11 12 25 19
19 8 24 8 19 0 -3 -7 1 -4 9 5 8 10 17 15 20 11 4 -3 7 -2 7 4 0 5 7 10 15 11
8 1 22 3 30 4 8 1 12 5 9 10 -3 4 -1 8 3 8 5 0 18 7 29 15 18 15 18 15 0 8
-13 -4 -17 -3 -12 5 4 7 2 12 -3 12 -6 0 -11 7 -11 15 0 8 -5 15 -11 15 -6 0
-9 6 -6 14 3 8 -1 17 -9 20 -8 3 -14 12 -14 21 0 8 -5 15 -11 15 -5 0 -8 4 -4
9 3 6 -2 14 -11 19 -9 5 -15 11 -13 13 4 7 -41 89 -50 89 -4 0 -7 11 -6 25 2
14 -1 23 -6 20 -4 -3 -22 20 -38 52 -23 45 -31 54 -36 41z"/>
<path d="M11832 8315 c-7 -8 -13 -17 -13 -20 -3 -23 -13 -45 -20 -45 -5 0 -9
-7 -9 -15 0 -8 -4 -15 -10 -15 -5 0 -6 -7 -3 -17 4 -11 3 -14 -5 -9 -7 4 -12
1 -12 -8 0 -9 -5 -16 -11 -16 -5 0 -7 -5 -4 -11 4 -5 -3 -19 -15 -29 -14 -12
-20 -26 -16 -35 3 -10 2 -14 -5 -10 -6 4 -13 -2 -16 -14 -3 -12 -10 -21 -15
-21 -5 0 -7 -4 -4 -9 3 -5 -1 -14 -9 -21 -8 -7 -15 -18 -15 -25 0 -6 -9 -22
-20 -35 -22 -25 -26 -35 -10 -25 6 3 10 -1 10 -9 0 -9 3 -15 8 -14 8 1 43 -12
104 -42 23 -11 46 -20 51 -20 6 0 16 -8 24 -17 8 -11 11 -12 7 -3 -7 12 -5 13
8 3 8 -7 18 -10 21 -6 4 3 7 2 7 -3 0 -6 16 -16 35 -23 19 -7 35 -18 35 -24 0
-7 4 -6 10 3 5 8 10 10 10 4 0 -12 77 -49 93 -46 4 1 10 -5 13 -13 3 -8 10
-13 14 -10 9 6 120 -45 147 -66 11 -9 14 -10 9 -2 -5 9 -2 11 8 7 9 -3 16 -10
16 -15 0 -5 9 -9 21 -9 11 0 18 -4 15 -8 -2 -4 7 -9 22 -10 15 -1 32 -8 37
-15 6 -7 18 -11 29 -9 11 2 16 0 12 -7 -4 -6 0 -11 9 -11 9 0 27 -7 40 -16 14
-9 25 -13 25 -9 0 3 7 -1 16 -10 9 -9 23 -14 31 -11 7 3 16 -1 19 -9 4 -8 10
-12 15 -9 5 3 9 1 9 -4 0 -6 8 -9 18 -8 9 0 16 -5 14 -12 -1 -8 1 -11 6 -8 10
6 78 -16 89 -29 5 -4 1 -5 -7 0 -9 5 -12 5 -7 -1 5 -5 17 -10 28 -10 37 -3 40
-4 33 -16 -4 -6 -3 -8 3 -5 5 3 20 0 34 -7 13 -7 27 -12 31 -12 4 1 16 -6 26
-15 10 -8 23 -14 30 -11 7 2 12 -1 12 -6 0 -5 8 -9 18 -8 9 0 16 -5 14 -12 -1
-8 1 -11 6 -8 5 3 21 -1 36 -9 18 -10 25 -10 20 -2 -4 7 5 1 19 -12 14 -13 38
-23 52 -23 14 0 23 -3 20 -6 -8 -8 77 -43 91 -38 8 3 11 -1 7 -10 -4 -10 0
-12 13 -7 13 5 15 3 9 -7 -5 -8 -4 -11 2 -7 5 3 22 -1 37 -9 16 -7 33 -14 38
-14 5 0 22 -9 38 -20 15 -11 30 -17 34 -13 3 3 14 -1 24 -10 10 -10 22 -14 25
-11 4 4 9 0 13 -9 3 -9 11 -14 19 -11 7 3 20 -2 29 -11 9 -9 25 -17 36 -18 11
-1 20 -6 20 -11 0 -5 3 -6 7 -3 3 4 15 -1 26 -10 15 -13 18 -14 13 -3 -4 8 2
4 13 -9 13 -14 21 -18 21 -10 0 11 2 11 9 1 4 -7 17 -14 29 -15 12 0 24 -7 26
-14 3 -7 12 -10 21 -7 11 5 18 0 22 -15 4 -17 8 -19 19 -10 11 9 15 7 20 -5 4
-10 13 -15 21 -12 8 3 23 -3 35 -13 11 -11 26 -17 34 -14 9 3 2 13 -24 30 -20
14 -40 30 -43 35 -3 5 -9 8 -12 6 -3 -1 -17 7 -31 19 -14 13 -26 20 -26 15 -1
-4 -10 4 -21 17 -11 13 -22 21 -26 17 -3 -3 -12 3 -20 14 -8 11 -19 20 -25 20
-6 0 -18 8 -27 18 -9 9 -25 23 -36 30 -11 7 -35 22 -52 33 -18 12 -33 25 -33
30 0 5 -3 8 -7 7 -12 -4 -54 28 -46 35 3 4 -3 7 -15 7 -12 0 -22 5 -22 10 0 6
-4 10 -10 10 -5 0 -19 8 -30 18 -11 9 -23 16 -26 14 -2 -1 -15 9 -28 23 -13
14 -27 25 -31 25 -9 0 -89 62 -93 72 -2 5 -8 6 -13 2 -5 -3 -12 2 -15 10 -3 9
-12 16 -20 16 -8 0 -14 5 -14 11 0 5 -4 7 -10 4 -5 -3 -10 -1 -10 5 0 6 -8 14
-17 17 -20 8 -33 18 -70 53 -14 14 -22 18 -18 10 5 -8 -5 -4 -21 10 -16 14
-30 28 -32 33 -2 4 -8 5 -13 1 -5 -3 -9 0 -9 6 0 6 -4 8 -10 5 -5 -3 -10 2
-10 11 0 10 -3 15 -6 11 -4 -3 -12 -1 -20 6 -32 29 -44 37 -53 37 -5 0 -12 7
-15 16 -4 9 -13 14 -22 10 -8 -3 -12 -2 -9 4 3 6 1 10 -5 10 -6 0 -8 4 -5 10
3 6 -1 7 -9 4 -9 -3 -16 -1 -16 6 0 6 -3 9 -7 7 -11 -7 -33 19 -25 29 4 4 2 4
-5 0 -6 -3 -14 -2 -18 4 -4 6 -11 8 -16 5 -5 -4 -9 2 -9 11 0 10 -3 14 -6 11
-4 -4 -14 1 -23 11 -9 9 -22 18 -28 19 -19 4 -52 40 -45 48 4 3 -1 3 -9 0 -9
-3 -23 3 -33 14 -10 11 -23 18 -27 15 -5 -3 -9 1 -9 9 0 8 -12 18 -26 21 -18
5 -24 11 -20 23 5 13 4 14 -8 4 -12 -10 -16 -8 -21 9 -3 11 -10 18 -15 15 -4
-3 -13 2 -20 10 -7 8 -16 15 -21 15 -4 0 -20 11 -35 25 -14 13 -30 23 -33 20
-4 -2 -14 5 -21 16 -8 10 -20 19 -27 19 -7 0 -13 5 -13 10 0 6 -4 10 -10 10
-9 0 -18 6 -72 52 -11 10 -25 15 -29 12 -5 -3 -9 2 -9 11 0 9 -4 13 -10 10 -5
-3 -10 -1 -10 4 0 6 -6 11 -13 11 -7 0 -19 9 -27 19 -7 11 -17 18 -21 16 -4
-3 -9 2 -13 10 -3 8 -12 15 -21 15 -8 0 -15 5 -15 10 0 6 -7 10 -15 10 -8 0
-15 5 -15 10 0 15 -23 11 -38 -5z"/>
<path d="M7402 7734 c-7 -7 -12 -18 -12 -24 0 -5 -7 -10 -16 -10 -8 0 -13 -4
-10 -9 3 -5 -10 -23 -29 -40 -20 -17 -32 -31 -28 -31 4 0 -2 -7 -13 -15 -10
-8 -16 -15 -12 -15 4 0 0 -9 -9 -19 -9 -11 -20 -18 -25 -15 -4 3 -8 -1 -8 -9
0 -7 -10 -23 -22 -35 -33 -30 -48 -50 -48 -62 0 -5 -7 -10 -17 -10 -9 0 -14
-3 -10 -6 3 -3 -8 -19 -26 -35 -17 -16 -28 -29 -24 -29 4 0 -3 -11 -15 -24
-13 -13 -27 -21 -32 -18 -5 3 -6 1 -3 -5 3 -5 -12 -29 -34 -51 -22 -23 -37
-42 -34 -42 4 0 -10 -16 -31 -35 -20 -19 -34 -35 -31 -35 4 0 -6 -13 -21 -29
-70 -74 -102 -111 -97 -111 3 0 -8 -13 -25 -30 -17 -16 -28 -30 -24 -30 4 0
-5 -9 -20 -21 -14 -11 -26 -27 -26 -35 0 -8 -4 -12 -10 -9 -5 3 -10 -1 -10
-10 0 -9 -4 -13 -10 -10 -5 3 -10 0 -10 -7 0 -8 -9 -20 -20 -28 -11 -8 -20
-20 -20 -28 0 -7 -5 -10 -12 -6 -6 4 -8 3 -4 -4 3 -6 -2 -15 -11 -21 -17 -10
-17 -10 0 -11 9 0 27 11 39 25 11 13 25 22 30 19 4 -3 8 3 8 12 0 10 3 14 6
11 4 -4 18 6 32 21 13 15 21 20 16 12 -7 -13 -5 -13 9 -1 9 7 14 17 11 22 -3
5 2 9 10 9 9 0 16 5 16 12 0 6 3 8 6 5 4 -4 15 3 25 15 11 11 19 18 19 14 0
-4 11 5 25 20 16 17 25 22 26 13 0 -8 4 -4 9 9 5 12 17 22 25 22 9 0 13 5 10
10 -3 6 -2 10 4 10 6 0 20 10 32 23 12 12 18 15 14 7 -5 -8 3 -4 18 10 52 50
64 60 71 60 4 0 18 12 32 28 14 15 22 21 18 13 -5 -9 -3 -12 4 -7 7 4 12 14
12 23 0 9 3 13 6 10 7 -6 43 21 111 82 17 16 34 27 36 24 3 -3 10 5 17 16 6
12 15 19 20 16 5 -3 14 4 20 16 7 11 14 19 16 16 3 -2 18 8 34 24 16 16 35 29
44 29 10 0 13 6 9 17 -4 10 -2 14 4 10 5 -3 19 2 30 12 10 10 29 24 41 30 13
7 20 17 16 23 -4 6 -1 9 6 6 7 -2 24 7 37 20 13 12 28 20 34 16 6 -3 5 3 -2
14 -7 12 -17 18 -21 16 -4 -3 -8 1 -8 9 0 8 -7 18 -16 21 -9 3 -12 11 -8 18 4
7 4 10 -1 6 -9 -9 -35 16 -35 33 0 7 -3 10 -6 6 -8 -8 -34 18 -34 33 0 6 -3 9
-7 7 -9 -6 -34 18 -27 25 2 3 -2 5 -9 5 -7 0 -18 -6 -25 -13z"/>
<path d="M11310 7579 c0 -11 -101 -109 -112 -109 -5 0 -7 -4 -3 -9 3 -5 -4
-12 -15 -16 -11 -3 -20 -12 -20 -18 0 -13 20 -47 20 -35 0 4 16 -8 35 -27 19
-19 39 -35 45 -35 6 0 8 -4 5 -10 -3 -5 1 -10 9 -10 9 0 21 -9 28 -20 7 -11
18 -20 25 -20 7 0 13 -4 13 -10 0 -5 8 -10 17 -10 9 0 14 -3 10 -6 -8 -8 43
-54 60 -54 8 0 12 -3 10 -7 -3 -5 1 -14 9 -21 8 -7 14 -10 14 -7 0 4 16 -8 35
-27 63 -61 83 -77 89 -71 3 4 6 -2 6 -12 0 -10 3 -16 6 -12 4 3 21 -10 39 -29
18 -18 35 -34 39 -34 7 0 15 -7 94 -80 24 -22 46 -40 49 -40 3 0 19 -13 34
-30 16 -16 29 -26 29 -22 0 4 14 -8 30 -27 17 -18 30 -31 30 -27 0 4 11 -4 24
-16 13 -13 21 -26 19 -30 -2 -4 3 -5 11 -2 11 4 16 0 16 -12 0 -9 3 -14 7 -11
3 4 13 -2 20 -13 8 -11 19 -18 24 -15 5 4 9 -1 9 -10 0 -9 3 -14 8 -12 9 6 33
-19 25 -27 -4 -3 1 -6 10 -6 10 0 17 -4 17 -8 0 -5 7 -9 15 -9 13 0 13 2 0 16
-48 53 -55 62 -55 71 0 6 -5 10 -11 10 -5 0 -7 6 -3 13 4 6 3 9 -1 4 -12 -10
-45 23 -45 45 0 11 -4 16 -10 13 -5 -3 -10 -3 -10 2 0 7 -16 28 -69 91 -11 12
-18 22 -15 22 2 0 -4 8 -13 19 -10 10 -31 35 -48 55 -16 21 -40 48 -52 61 -12
12 -19 26 -16 29 4 3 0 6 -7 6 -7 0 -10 3 -7 6 4 4 -8 20 -26 35 -17 16 -29
29 -24 29 4 0 -6 14 -23 31 -16 17 -27 37 -23 43 3 6 3 8 -2 4 -10 -9 -41 32
-37 47 2 6 0 7 -4 3 -9 -9 -40 33 -36 47 2 6 1 7 -3 3 -9 -8 -22 4 -55 52 -27
38 -48 65 -67 85 -7 8 -13 18 -13 24 0 6 -7 11 -15 11 -9 0 -12 6 -8 17 4 9 2
14 -3 11 -5 -3 -15 0 -22 8 -7 8 -10 14 -6 14 4 0 -6 12 -22 26 -16 15 -22 23
-14 18 13 -7 13 -5 1 9 -7 9 -17 14 -22 11 -5 -3 -8 0 -7 7 2 8 -7 14 -19 15
-13 1 -23 -2 -23 -7z"/>
<path d="M7929 7283 c-1 -5 -1 -11 0 -15 0 -5 -4 -8 -10 -8 -5 0 -7 -4 -4 -10
3 -5 1 -10 -4 -10 -6 0 -10 -6 -8 -12 1 -7 -4 -12 -12 -10 -12 3 -12 0 -2 -11
8 -11 8 -16 1 -19 -6 -2 -12 -13 -13 -25 0 -12 -5 -19 -9 -17 -7 5 -12 -10 -9
-28 0 -5 -4 -8 -10 -8 -5 0 -8 -4 -4 -9 3 -5 -2 -16 -10 -24 -9 -9 -12 -23 -8
-33 4 -12 3 -15 -5 -10 -11 6 -17 -5 -13 -26 0 -5 -3 -8 -9 -8 -5 0 -6 -7 -3
-17 4 -10 2 -14 -4 -10 -7 4 -13 -7 -17 -29 -4 -19 -14 -38 -21 -41 -8 -3 -13
-9 -10 -14 6 -9 -14 -49 -29 -60 -5 -4 -5 -12 -2 -18 4 -6 2 -11 -4 -11 -6 0
-8 -4 -5 -10 3 -5 1 -10 -5 -10 -7 0 -10 -7 -6 -15 3 -8 1 -15 -5 -15 -6 0 -8
-7 -5 -16 4 -10 2 -13 -6 -8 -8 5 -9 2 -5 -10 4 -10 3 -15 -3 -11 -9 6 -14 -8
-11 -27 0 -5 -3 -8 -9 -8 -6 0 -10 -3 -9 -7 2 -15 -14 -53 -22 -53 -5 0 -5 -7
-2 -17 5 -12 3 -14 -7 -8 -10 6 -12 4 -7 -8 3 -10 2 -17 -4 -17 -6 0 -7 -4 -4
-10 3 -5 1 -10 -5 -10 -6 0 -9 -4 -6 -9 3 -5 -6 -25 -19 -46 -14 -20 -20 -33
-13 -30 7 4 4 -1 -6 -9 -13 -11 -15 -16 -6 -16 9 0 5 -9 -10 -25 -13 -14 -20
-25 -16 -25 5 0 1 -11 -8 -25 -9 -14 -14 -30 -11 -34 3 -5 1 -11 -4 -13 -5 -1
-11 -10 -13 -18 -2 -8 -9 -21 -16 -28 -7 -8 -10 -17 -7 -22 3 -4 -2 -10 -10
-14 -8 -3 -12 -12 -9 -21 3 -8 1 -15 -6 -15 -6 0 -9 -4 -5 -9 3 -5 1 -12 -5
-16 -5 -3 -10 -13 -10 -21 0 -9 -7 -22 -15 -31 -8 -8 -13 -19 -10 -24 4 -5 1
-9 -5 -9 -6 0 -9 -4 -5 -9 3 -5 -1 -16 -9 -24 -8 -8 -12 -17 -9 -21 4 -3 1 -6
-6 -6 -7 0 -9 -5 -5 -12 4 -6 -1 -17 -11 -25 -11 -7 -13 -13 -6 -13 9 0 8 -5
-3 -16 -9 -8 -14 -20 -11 -25 4 -5 1 -9 -5 -9 -6 0 -9 -4 -5 -9 3 -6 -3 -14
-12 -20 -14 -8 -15 -11 -3 -11 12 0 11 -3 -2 -11 -10 -5 -18 -19 -18 -29 0
-10 -5 -22 -10 -25 -6 -4 -8 -11 -5 -16 4 -5 1 -9 -4 -9 -6 0 -11 -9 -11 -20
0 -11 -4 -20 -10 -20 -5 0 -10 -3 -9 -7 3 -19 -14 -52 -24 -46 -6 3 -7 1 -3
-6 4 -6 2 -19 -5 -27 -6 -8 -9 -17 -6 -21 4 -3 -3 -14 -15 -24 -13 -12 -16
-19 -8 -19 9 0 7 -5 -6 -15 -14 -11 -16 -15 -4 -15 12 0 11 -3 -3 -11 -9 -6
-15 -14 -12 -20 4 -5 1 -9 -4 -9 -6 0 -10 -6 -9 -12 2 -7 -3 -12 -11 -10 -12
3 -12 0 -1 -12 8 -11 9 -16 1 -16 -6 0 -10 -6 -9 -12 2 -7 -2 -12 -8 -11 -7 1
-10 -6 -7 -17 3 -12 0 -20 -6 -20 -7 0 -9 -4 -6 -10 3 -5 1 -10 -6 -10 -7 0
-9 -3 -6 -7 4 -3 2 -12 -4 -20 -6 -7 -8 -13 -5 -13 4 0 0 -7 -8 -16 -9 -8 -14
-20 -11 -25 4 -5 1 -9 -4 -9 -6 0 -10 -3 -9 -7 1 -5 -3 -18 -10 -30 -7 -13
-10 -23 -7 -23 4 0 -1 -7 -9 -16 -9 -8 -14 -20 -11 -25 4 -5 1 -9 -5 -9 -6 0
-8 -4 -5 -10 3 -5 2 -10 -4 -10 -6 0 -7 -7 -4 -17 4 -11 3 -14 -5 -9 -8 5 -12
0 -12 -14 0 -14 -4 -19 -12 -14 -10 5 -10 4 0 -7 10 -11 15 -9 30 11 9 14 16
28 14 33 -1 4 5 7 14 7 9 0 14 5 12 12 -3 7 7 23 20 35 14 13 21 23 16 23 -5
0 -2 6 7 13 8 7 22 26 29 44 8 17 17 30 21 27 7 -4 16 11 17 29 1 4 15 21 32
37 17 16 31 33 30 37 0 4 7 16 15 26 8 9 12 17 9 17 -3 0 7 11 22 25 15 14 24
28 20 32 -4 4 4 13 16 20 13 7 17 12 10 13 -7 0 1 13 18 30 16 16 30 34 30 40
0 6 5 8 12 4 7 -5 8 -3 3 5 -4 8 1 21 14 32 12 11 21 24 21 30 0 6 5 7 12 3 6
-4 8 -3 4 4 -3 6 1 18 10 26 8 9 13 16 10 16 -3 0 6 12 19 26 14 15 22 30 19
35 -3 5 2 9 11 9 9 0 13 5 10 10 -3 6 1 13 9 16 9 3 16 13 16 20 0 8 7 17 16
21 8 3 13 12 10 19 -5 13 5 18 26 15 4 0 5 6 2 14 -4 8 -2 15 3 15 4 0 17 16
27 35 11 19 23 35 28 35 4 0 7 3 5 8 -1 4 8 18 21 32 12 13 22 29 22 36 0 7
10 20 22 28 12 9 18 16 13 16 -5 0 0 7 11 15 10 8 16 15 12 15 -4 0 4 12 17
26 14 15 23 30 20 34 -2 4 7 13 21 20 18 10 21 16 12 22 -10 5 -8 8 4 8 10 0
17 4 15 9 -2 8 33 62 81 121 12 15 22 31 22 35 0 3 7 13 15 22 8 8 13 19 10
24 -4 5 1 6 9 3 10 -4 16 -1 16 9 0 9 6 22 13 29 24 26 77 106 77 117 0 6 9
16 20 23 11 7 20 18 20 24 0 7 7 15 16 18 8 3 12 10 9 16 -3 5 -1 10 4 10 6 0
11 7 11 16 0 8 5 12 10 9 6 -3 10 0 10 8 0 8 7 20 15 27 8 7 13 16 10 20 -3 5
4 12 16 15 11 4 18 9 15 12 -5 6 43 75 57 81 4 2 7 10 7 18 0 8 5 14 10 14 6
0 10 6 10 14 0 8 7 17 16 20 8 3 13 10 9 15 -3 6 2 14 11 19 17 9 16 57 -1 57
-5 0 -16 4 -22 8 -7 5 -13 5 -13 2 0 -3 -6 0 -14 7 -8 7 -12 16 -9 20 2 4 -3
5 -11 2 -10 -4 -16 -1 -16 7 0 7 -3 9 -6 6 -4 -4 -19 2 -34 13 -16 11 -33 20
-39 20 -5 0 -15 8 -20 18 -6 9 -11 13 -11 9 0 -5 -13 1 -29 12 -15 11 -31 18
-35 14 -3 -3 -6 -2 -6 4 0 5 -18 18 -40 28 -22 10 -40 22 -40 27 0 10 -40 11
-41 1z"/>
<path d="M10940 7270 c-14 -10 -27 -17 -31 -14 -4 2 -10 -3 -13 -12 -3 -8 -10
-12 -16 -9 -5 3 -10 1 -10 -4 0 -6 -6 -11 -14 -11 -7 0 -19 -7 -26 -15 -7 -9
-15 -13 -18 -10 -3 2 -11 -3 -19 -13 -10 -11 -12 -12 -8 -2 4 8 -3 4 -14 -9
-12 -13 -21 -18 -21 -12 0 6 -5 11 -12 11 -6 0 -9 -3 -5 -6 9 -9 -21 -36 -33
-29 -5 3 -10 1 -10 -5 0 -10 -48 -35 -62 -32 -5 1 -8 -6 -8 -15 0 -15 -2 -16
-10 -3 -8 13 -10 13 -10 -2 0 -11 -5 -15 -14 -12 -9 4 -13 -3 -13 -20 0 -14 2
-24 6 -22 3 2 15 -8 25 -22 12 -16 14 -23 5 -18 -8 4 -6 1 4 -7 9 -8 17 -20
17 -26 0 -7 4 -10 8 -7 4 2 14 -9 21 -25 7 -17 17 -26 24 -22 7 3 9 3 5 -2 -4
-4 1 -20 12 -35 11 -15 16 -31 12 -35 -4 -5 -2 -6 3 -3 6 3 16 0 23 -8 7 -8
10 -14 7 -14 -6 0 7 -17 42 -55 16 -16 19 -25 10 -28 -7 -3 -4 -6 7 -6 12 -1
16 -6 12 -16 -3 -8 0 -15 7 -15 7 0 21 -16 31 -35 11 -19 23 -35 28 -35 5 0 6
-4 3 -10 -3 -5 -2 -10 3 -10 12 0 45 -50 45 -67 0 -7 4 -10 9 -7 4 3 13 -6 20
-20 6 -14 15 -26 20 -26 4 0 8 -7 8 -15 0 -8 5 -15 10 -15 6 0 10 -5 10 -10 0
-12 15 -32 43 -58 9 -9 17 -20 17 -25 0 -5 14 -26 30 -47 17 -21 30 -43 30
-50 0 -6 5 -8 10 -5 9 5 15 -15 11 -37 0 -4 6 -5 14 -2 10 4 15 0 15 -15 0
-12 5 -21 10 -21 6 0 15 -12 20 -26 6 -14 14 -22 20 -19 6 4 7 -1 3 -12 -3
-10 -2 -15 2 -11 5 5 13 0 19 -10 6 -10 20 -33 31 -51 11 -18 30 -45 42 -59
13 -15 23 -32 23 -37 0 -6 9 -17 19 -25 11 -7 18 -17 16 -21 -3 -4 2 -10 11
-13 9 -4 14 -13 10 -21 -3 -8 -2 -14 2 -12 4 1 8 -1 9 -6 2 -4 14 -18 29 -32
14 -13 23 -29 19 -34 -3 -6 1 -11 9 -11 9 0 16 -7 16 -15 0 -8 5 -15 10 -15 6
0 10 -6 10 -14 0 -8 7 -17 16 -20 8 -3 13 -10 10 -15 -3 -5 1 -12 10 -15 9 -4
14 -13 10 -22 -3 -8 -2 -12 4 -9 6 3 10 3 10 -2 0 -8 32 -50 67 -87 13 -14 14
-17 3 -12 -13 7 -13 6 0 -6 8 -7 21 -25 29 -40 8 -16 20 -28 27 -28 8 0 11 -6
8 -15 -4 -10 0 -15 12 -15 15 0 16 -2 5 -9 -11 -7 -9 -10 8 -16 12 -3 19 -10
16 -15 -3 -5 4 -15 15 -23 11 -7 18 -16 15 -19 -3 -3 6 -17 19 -31 13 -14 21
-28 18 -31 -3 -3 0 -6 6 -6 7 0 12 -7 12 -15 0 -9 7 -18 15 -21 8 -4 15 -12
15 -19 0 -6 9 -20 20 -30 10 -9 18 -22 17 -29 -1 -6 4 -10 11 -8 6 1 12 -7 12
-18 0 -11 5 -20 11 -20 5 0 8 -4 5 -9 -7 -11 20 -8 31 3 4 4 1 6 -7 4 -10 -2
-14 4 -13 20 2 13 -1 21 -7 17 -9 -6 -14 10 -13 42 1 7 -3 11 -7 8 -7 -5 -23
32 -21 48 1 4 -6 10 -15 14 -13 5 -13 7 -2 14 10 7 10 9 1 9 -7 0 -13 7 -13
15 0 8 -5 15 -10 15 -6 0 -9 3 -9 8 4 24 -2 42 -13 36 -8 -5 -9 -2 -5 10 4 10
1 19 -7 22 -8 3 -13 14 -11 25 2 10 -1 19 -6 19 -6 0 -7 5 -4 10 3 6 1 10 -4
10 -6 0 -11 9 -11 20 0 11 -4 20 -10 20 -5 0 -10 11 -10 25 0 14 -4 25 -8 25
-9 0 -38 70 -34 82 1 4 -4 8 -12 8 -8 0 -13 10 -12 23 1 12 -4 28 -11 35 -7 8
-11 17 -8 22 3 4 -2 10 -10 13 -8 4 -12 15 -10 27 2 11 0 18 -6 15 -5 -4 -9
-1 -9 4 0 20 -3 26 -19 39 -12 10 -12 12 -1 6 13 -7 13 -5 1 9 -7 9 -10 17 -5
17 5 0 5 4 -1 8 -17 12 -36 52 -30 62 4 6 -1 13 -9 16 -9 3 -16 12 -16 19 0 7
-7 25 -14 41 -8 15 -12 32 -9 37 3 6 1 7 -5 3 -8 -5 -12 0 -12 13 0 12 -4 21
-10 21 -5 0 -10 9 -10 21 0 11 -4 18 -9 14 -6 -3 -8 4 -6 15 2 11 -1 20 -6 20
-6 0 -8 4 -4 10 3 5 -3 18 -14 29 -11 11 -17 22 -14 25 3 3 1 11 -5 18 -6 7
-10 15 -10 18 1 3 -9 24 -21 48 -12 23 -19 47 -16 51 2 5 -1 11 -9 14 -7 3
-17 18 -20 33 -4 15 -16 38 -26 51 -10 14 -16 31 -13 39 3 8 0 14 -7 14 -6 0
-8 5 -5 10 3 6 1 10 -4 10 -6 0 -11 9 -11 19 0 11 -5 23 -10 26 -6 4 -8 11 -5
16 4 5 -1 12 -10 15 -13 5 -13 9 -3 22 11 14 10 15 -7 8 -11 -4 -16 -4 -12 0
4 4 2 13 -4 20 -6 8 -9 21 -5 29 3 10 0 15 -11 15 -9 0 -14 3 -10 6 3 3 -5 26
-18 50 -13 24 -18 41 -12 37 7 -3 3 3 -7 15 -11 12 -16 22 -12 22 4 0 0 7 -9
16 -9 9 -14 23 -11 30 3 8 1 14 -4 14 -6 0 -10 7 -10 15 0 8 -4 15 -8 15 -5 0
-9 7 -10 15 -1 8 -3 22 -4 30 -1 8 -4 13 -6 10 -7 -7 -33 46 -27 55 3 4 -2 13
-10 20 -8 7 -12 16 -9 21 3 5 0 9 -6 9 -6 0 -8 5 -5 10 3 6 1 10 -6 10 -6 0
-9 8 -6 20 3 11 0 18 -7 17 -6 -1 -10 4 -8 11 1 6 -3 12 -10 12 -6 0 -9 3 -5
6 3 4 0 19 -8 34 -8 15 -11 30 -8 34 4 3 1 6 -5 6 -7 0 -12 6 -12 13 0 6 -6
19 -13 29 -12 15 -15 15 -37 -2z"/>
<path d="M8542 6953 c-5 -10 -7 -24 -5 -30 3 -7 -1 -13 -9 -13 -10 0 -9 -3 2
-10 9 -6 11 -10 3 -10 -7 0 -10 -7 -7 -15 4 -9 0 -15 -7 -15 -11 0 -11 -3 1
-10 9 -6 10 -10 3 -10 -6 0 -10 -9 -8 -20 2 -11 0 -20 -5 -20 -4 0 -6 -9 -3
-20 3 -13 0 -20 -8 -20 -12 0 -12 -2 0 -9 9 -6 10 -11 3 -15 -6 -4 -9 -13 -5
-21 3 -9 -1 -15 -8 -15 -11 0 -11 -3 1 -10 11 -7 11 -10 2 -10 -7 0 -10 -5 -7
-10 4 -6 1 -18 -7 -27 -11 -14 -11 -16 2 -8 13 8 13 7 1 -8 -11 -14 -11 -17 0
-17 11 -1 11 -3 -1 -13 -9 -7 -15 -29 -15 -54 0 -22 -3 -39 -7 -36 -5 2 -8 0
-8 -6 0 -5 6 -12 13 -14 8 -4 7 -6 -3 -6 -10 -1 -16 -13 -17 -37 -1 -19 -8
-43 -15 -52 -9 -11 -10 -14 0 -8 6 4 12 2 12 -3 0 -6 -4 -11 -8 -11 -5 0 -8
-10 -7 -22 1 -13 -2 -31 -7 -42 -8 -14 -7 -17 3 -11 8 6 10 4 3 -6 -4 -8 -10
-23 -11 -34 -2 -10 -9 -23 -16 -27 -7 -5 -8 -8 -1 -8 6 0 11 -7 11 -15 0 -8
-4 -15 -8 -15 -4 0 -6 -9 -4 -20 2 -11 0 -20 -4 -20 -4 0 -7 -18 -7 -40 1 -22
-2 -41 -6 -43 -3 -1 -9 -18 -11 -37 -3 -19 -6 -35 -7 -35 -1 0 -3 -25 -6 -55
-3 -30 -8 -56 -13 -58 -4 -1 -6 -14 -3 -29 3 -17 1 -24 -6 -19 -11 7 -11 -12
1 -31 4 -6 2 -13 -4 -15 -7 -2 -13 -16 -15 -30 -2 -19 3 -27 18 -31 15 -4 18
-3 10 5 -8 8 -5 19 10 41 12 17 16 27 10 23 -7 -4 -3 9 8 28 11 20 20 38 20
41 0 3 0 6 1 8 3 11 10 44 11 54 1 6 7 9 13 6 8 -2 12 6 11 24 0 15 4 27 9 26
6 -1 11 8 11 20 3 41 12 62 24 59 6 -1 9 2 5 7 -3 6 3 29 14 51 10 22 15 37 9
34 -6 -4 -3 4 5 17 9 13 17 29 19 34 2 6 6 9 10 8 4 -2 5 11 3 27 -2 17 0 28
5 25 5 -3 11 8 15 25 4 16 11 30 16 30 6 0 7 5 4 10 -4 6 -1 18 7 27 7 9 12
18 11 20 -7 9 -2 23 6 18 6 -3 8 4 6 15 -2 11 1 20 6 20 6 0 8 4 4 9 -3 5 -1
12 5 16 6 4 8 10 5 15 -3 5 1 14 8 22 15 14 15 15 24 58 3 17 10 33 14 36 5 3
7 10 4 15 -4 5 -1 9 5 9 7 0 10 7 6 15 -3 8 -1 15 5 15 6 0 7 5 4 10 -3 6 -1
10 4 10 6 0 11 11 11 25 0 14 5 25 10 25 6 0 9 3 9 8 -3 18 2 33 10 28 4 -3 7
6 5 19 -1 14 2 25 7 25 5 0 8 3 7 8 -1 4 6 25 15 46 12 27 14 43 7 50 -5 5
-10 7 -10 2 0 -4 -7 0 -16 9 -12 12 -19 13 -24 5 -5 -8 -9 -6 -14 5 -5 14 -9
15 -21 5 -12 -10 -16 -9 -21 4 -3 9 -10 16 -16 16 -5 0 -6 -6 -1 -12 4 -7 -5
-5 -20 5 -14 9 -34 18 -44 20 -10 1 -23 6 -30 10 -7 4 -16 0 -21 -10z"/>
<path d="M5106 6951 c9 -9 34 -9 34 -1 0 5 -9 8 -20 7 -10 -1 -17 -3 -14 -6z"/>
<path d="M10126 6893 c-10 -10 -16 -12 -12 -5 4 6 2 12 -3 12 -6 0 -11 -4 -11
-9 0 -5 -11 -8 -25 -6 -14 1 -25 -2 -25 -6 0 -5 -10 -9 -23 -9 -13 0 -29 -6
-36 -12 -11 -11 -12 -10 -6 2 7 11 4 11 -11 -2 -14 -12 -24 -14 -37 -7 -13 8
-17 6 -18 -6 -1 -8 -2 -21 -3 -27 -1 -7 2 -16 7 -19 4 -3 9 -16 10 -27 1 -12
4 -22 7 -22 4 0 7 -7 8 -15 1 -8 3 -22 4 -30 1 -8 8 -15 17 -15 14 0 14 -2 1
-10 -8 -5 -10 -10 -3 -10 6 0 10 -13 9 -29 -1 -16 0 -29 3 -28 4 1 7 -1 8 -6
2 -4 9 -20 17 -36 9 -16 12 -31 9 -35 -4 -3 -1 -6 5 -6 6 0 9 -6 6 -14 -3 -7
1 -20 8 -27 7 -8 13 -18 13 -24 1 -20 29 -100 38 -106 5 -3 8 -9 8 -13 -3 -21
0 -37 7 -33 4 3 8 -11 9 -31 1 -20 7 -38 12 -40 6 -2 11 -15 11 -28 0 -13 4
-24 8 -24 5 0 9 -6 10 -12 5 -41 9 -55 19 -74 7 -12 9 -24 6 -28 -3 -3 -1 -6
6 -6 7 0 9 -4 6 -10 -3 -5 -2 -10 4 -10 5 0 8 -9 6 -20 -2 -11 0 -20 6 -20 5
0 9 -9 9 -20 0 -11 4 -20 9 -20 6 0 8 -9 6 -20 -2 -11 1 -22 6 -25 5 -4 7 -11
4 -16 -4 -5 -1 -9 6 -9 6 0 9 -8 6 -20 -3 -11 -1 -18 4 -14 5 3 9 -4 9 -15 0
-12 6 -21 13 -21 9 0 9 -2 -1 -9 -11 -7 -10 -9 3 -15 9 -3 14 -10 11 -15 -3
-5 1 -25 9 -45 9 -20 13 -41 10 -46 -4 -6 1 -10 9 -10 9 0 16 -4 16 -10 0 -5
-6 -10 -12 -10 -10 0 -10 -2 0 -9 8 -4 14 -12 14 -17 0 -5 3 -15 7 -22 4 -7 7
14 7 47 -1 38 -4 56 -11 51 -6 -5 -10 8 -9 38 1 26 -3 53 -10 61 -9 12 -8 13
4 6 12 -7 13 -6 3 6 -9 11 -9 19 -2 26 8 8 8 13 0 17 -6 4 -11 18 -11 32 0 13
-6 24 -12 24 -10 0 -9 3 1 9 9 6 10 11 3 15 -6 4 -8 14 -5 22 3 9 0 20 -8 25
-10 6 -10 9 -1 9 6 0 12 5 12 11 0 5 -4 8 -8 5 -5 -3 -8 11 -7 30 1 18 -1 34
-6 34 -4 0 -6 12 -3 26 3 14 1 23 -3 21 -5 -3 -8 15 -8 39 1 24 -3 44 -7 44
-5 0 -4 9 2 19 7 14 6 27 -4 46 -8 15 -12 34 -9 41 3 8 0 21 -6 28 -9 10 -9
16 -1 21 8 5 8 11 0 20 -7 8 -9 19 -5 25 3 5 1 10 -6 10 -8 0 -9 3 0 14 9 10
8 16 -4 26 -11 9 -12 17 -5 30 7 13 7 21 0 25 -6 4 -8 11 -5 16 4 5 0 9 -7 9
-8 0 -9 3 -3 8 12 8 15 53 4 46 -12 -7 -22 17 -11 28 7 7 6 21 -4 44 -11 27
-12 34 -2 34 10 0 9 3 -1 9 -8 5 -11 16 -8 25 4 9 3 16 -2 16 -4 0 -7 10 -6
23 1 12 -2 30 -6 39 -6 11 -5 18 4 21 9 4 9 6 0 6 -7 1 -10 7 -7 14 2 7 -1 20
-8 30 -13 17 -14 17 -32 0z"/>
<path d="M9233 6824 c4 -7 0 -15 -9 -18 -8 -3 -12 -11 -8 -17 4 -6 8 -47 10
-90 2 -43 8 -88 14 -99 8 -15 8 -20 -2 -20 -9 0 -9 -3 2 -10 13 -9 13 -10 0
-10 -9 0 -11 -3 -5 -8 6 -4 10 -27 10 -52 0 -25 6 -53 14 -63 14 -16 13 -17
-5 -11 -17 7 -17 6 -5 -9 7 -9 10 -17 6 -17 -4 0 -2 -6 4 -14 8 -10 9 -16 1
-21 -6 -3 -7 -11 -3 -17 3 -7 8 -34 10 -62 2 -28 5 -57 8 -63 2 -7 0 -13 -5
-13 -6 0 -10 -5 -10 -11 0 -5 4 -8 9 -4 5 3 12 1 16 -5 3 -5 1 -10 -6 -10 -8
0 -7 -5 2 -17 12 -15 12 -16 -1 -8 -13 8 -13 7 -1 -8 11 -14 11 -17 0 -17 -9
0 -10 -3 -4 -8 6 -4 10 -14 10 -22 -1 -8 2 -27 6 -41 4 -16 2 -32 -4 -38 -8
-8 -6 -11 9 -12 10 0 13 -3 7 -6 -7 -2 -13 -11 -13 -19 0 -9 5 -12 12 -8 7 5
8 3 2 -7 -11 -19 -14 -39 -5 -39 5 0 7 -12 6 -27 0 -15 2 -48 5 -75 4 -28 2
-52 -4 -59 -8 -9 -8 -10 1 -5 6 3 14 2 18 -4 3 -5 1 -10 -6 -10 -8 0 -7 -5 2
-17 12 -15 12 -16 -1 -8 -12 7 -13 6 -3 -6 10 -12 10 -18 0 -29 -10 -10 -9
-11 2 -5 11 6 13 1 9 -24 -3 -18 0 -31 6 -31 6 0 4 -5 -4 -10 -11 -7 -11 -10
-2 -10 7 0 10 -5 7 -10 -4 -6 -1 -18 7 -27 9 -12 9 -15 1 -9 -7 4 -13 3 -13
-3 0 -5 5 -13 10 -16 7 -4 7 -12 0 -25 -13 -24 -13 -39 1 -20 7 11 9 7 5 -17
-3 -21 0 -33 7 -33 7 0 6 -5 -3 -10 -13 -9 -13 -10 0 -10 13 0 13 -1 0 -10 -8
-5 -10 -10 -5 -10 6 0 10 -17 9 -37 0 -21 4 -41 10 -45 7 -5 7 -8 -2 -8 -10 0
-10 -5 -2 -20 8 -14 8 -20 0 -20 -6 0 -8 -5 -5 -10 4 -6 9 -8 13 -6 4 2 7 -31
7 -75 -1 -48 3 -79 10 -79 5 0 3 -5 -5 -10 -10 -7 -11 -10 -2 -10 8 0 10 -8 6
-26 -4 -15 -3 -25 2 -21 5 3 9 -8 9 -24 0 -16 -4 -29 -8 -29 -5 0 -5 -6 0 -12
4 -7 8 -22 8 -33 0 -11 4 -25 7 -30 4 -6 3 -17 -2 -25 -11 -17 -1 -42 14 -33
6 4 5 -1 -3 -10 -8 -10 -10 -24 -6 -34 4 -10 9 -43 11 -73 2 -30 6 -61 9 -67
2 -7 -1 -13 -8 -13 -8 0 -6 -4 3 -10 8 -5 11 -10 6 -10 -5 0 -3 -6 3 -14 9
-11 9 -15 -1 -20 -8 -4 -9 -8 -2 -11 5 -3 9 -20 8 -38 -1 -17 3 -38 9 -46 9
-12 9 -13 0 -7 -7 4 -13 3 -13 -3 0 -5 5 -13 10 -16 6 -3 10 -11 10 -16 0 -6
-5 -7 -11 -4 -6 4 -5 -2 3 -14 7 -12 17 -21 22 -21 6 0 5 5 -1 11 -7 7 -8 20
-4 33 5 11 7 36 6 54 -1 17 3 32 9 32 7 0 7 3 1 8 -12 9 -16 42 -5 42 5 0 7 8
6 18 -2 9 0 29 5 45 5 17 4 27 -3 27 -6 0 -6 6 2 15 7 8 9 15 6 15 -4 0 -2 8
3 18 6 11 6 24 0 35 -7 12 -6 17 3 17 9 0 9 3 -2 10 -9 6 -10 10 -3 10 6 0 10
9 8 20 -2 11 2 20 8 20 7 0 6 4 -3 10 -8 5 -10 10 -5 10 6 0 10 28 10 65 0 51
3 65 15 65 13 0 13 2 1 9 -13 8 -13 12 0 27 8 10 9 15 2 11 -8 -5 -11 0 -10
13 1 11 6 20 11 20 6 0 5 5 -2 12 -6 6 -8 18 -3 27 5 9 8 28 7 44 -1 15 3 27
9 27 5 0 3 5 -5 10 -12 8 -12 10 -1 10 11 0 11 3 0 17 -10 12 -11 15 -1 9 9
-6 11 -1 8 18 -3 15 0 26 6 26 6 0 5 7 -3 17 -8 9 -9 14 -3 10 7 -4 11 4 11
21 0 68 7 151 12 147 4 -2 7 5 7 15 0 10 -4 16 -9 13 -5 -3 -4 4 2 15 14 27
14 35 -1 26 -10 -6 -10 -4 0 7 6 7 12 37 12 67 0 33 4 51 10 47 6 -3 10 -1 10
4 0 6 -5 11 -11 11 -8 0 -8 4 0 14 8 10 8 21 1 40 -7 19 -7 25 0 21 7 -4 9 3
6 19 -3 14 -1 26 3 26 5 0 6 11 3 25 -2 14 2 33 9 42 10 12 10 14 2 9 -16 -9
-17 6 -1 22 9 9 9 12 -1 12 -11 0 -11 3 0 17 12 15 12 16 -1 8 -9 -5 -7 1 5
15 11 13 15 21 10 17 -7 -3 -11 9 -10 34 0 21 3 39 6 39 4 0 5 19 4 43 -2 27
3 48 13 60 15 16 14 17 -1 11 -13 -5 -16 -2 -11 10 3 9 11 13 18 9 6 -4 5 1
-3 10 -10 13 -10 17 -1 17 10 0 10 3 0 15 -10 12 -10 15 1 15 11 0 11 2 -1 10
-8 5 -10 10 -5 10 6 0 10 12 9 28 -1 15 3 32 8 39 5 6 5 14 0 17 -5 3 -8 15
-6 28 1 13 3 27 3 31 1 5 5 6 10 2 6 -3 8 4 6 16 -3 13 -10 26 -16 29 -7 5 -6
9 4 13 10 4 14 18 13 46 -1 23 1 41 5 41 10 0 6 34 -6 42 -6 5 -5 8 2 8 7 0
10 7 6 17 -5 12 -3 14 8 8 12 -8 12 -6 0 8 -7 9 -9 17 -4 17 5 0 9 18 7 40 -1
22 2 38 7 34 5 -3 5 4 0 19 -5 13 -6 30 -1 37 11 18 -14 42 -36 33 -12 -5 -15
-3 -9 6 6 10 3 11 -13 2 -27 -14 -35 -14 -26 1 5 7 3 8 -7 2 -21 -13 -51 -16
-44 -4 4 6 -3 6 -21 0 -21 -8 -29 -8 -36 2 -4 7 -8 8 -8 2 0 -6 -7 -11 -15
-11 -8 0 -15 4 -15 9 0 5 -6 6 -12 1 -21 -13 -50 -14 -42 -2 4 7 -1 7 -16 -1
-18 -10 -24 -9 -31 1 -5 8 -9 9 -9 4 0 -6 -9 -11 -20 -12 -11 -1 -18 2 -15 6
7 12 -28 8 -37 -3 -4 -6 -14 -4 -24 5 -10 8 -15 9 -11 3z"/>
<path d="M6567 6759 c7 -7 15 -10 18 -7 3 3 -2 9 -12 12 -14 6 -15 5 -6 -5z"/>
<path d="M8305 5712 c-19 -14 -15 -30 6 -25 14 4 17 8 9 13 -9 6 -9 9 1 13 8
3 10 6 4 6 -5 0 -14 -3 -20 -7z"/>
</g>
</svg>
